<?xml version="1.0" encoding="UTF-8"?>
<svg width="752px" height="290px" viewBox="0 0 752 290" version="1.1" xmlns="http://www.w3.org/2000/svg" xmlns:xlink="http://www.w3.org/1999/xlink">
    <!-- Generator: Sketch 55.1 (78136) - https://sketchapp.com -->
    <title>netlify-analytics</title>
    <desc>Created with Sketch.</desc>
    <defs>
        <linearGradient x1="98.5901424%" y1="50.4790381%" x2="18.1637732%" y2="51.8921225%" id="linearGradient-1">
            <stop stop-color="#30ECD5" stop-opacity="0" offset="0%"></stop>
            <stop stop-color="#30ECD5" offset="41.8127111%"></stop>
            <stop stop-color="#FFDD33" stop-opacity="0" offset="100%"></stop>
        </linearGradient>
        <linearGradient x1="100%" y1="42.6409718%" x2="2.25070979%" y2="60.3564645%" id="linearGradient-2">
            <stop stop-color="#2DF0DB" offset="0%"></stop>
            <stop stop-color="#FFE132" stop-opacity="0.536882926" offset="100%"></stop>
        </linearGradient>
    </defs>
    <g id="Page-1" stroke="none" stroke-width="1" fill="none" fill-rule="evenodd">
        <g id="netlify-analytics" transform="translate(1.000000, 1.000000)" fill-rule="nonzero">
            <g id="Group-4" transform="translate(344.000000, 113.000000)">
                <g id="line" transform="translate(0.000000, 11.000000)">
                    <g id="Group-3">
                        <polyline id="Path-35" fill="url(#linearGradient-1)" opacity="0.122201493" points="73.1934442 45.2386606 101.346857 41.9556672 121.272664 46.5996163 148.818718 42.8358077 181.143686 44.0341655 201.159717 37.8310047 214.807921 38.4442076 236.393345 34.5602271 246.235896 36.6045974 259.262361 34.4890997 273.196366 39.6598376 285.891904 26.3029971 301.154628 24.0441669 322.409126 14.019531 338.574376 31.1881478 349.745648 24.0441669 364.010579 27.3052449 376.375191 21.0298791 405.807579 19.0469365 405.807579 104.019531 17.7518634 104.019531 0.807579441 50.3453889"></polyline>
                        <path d="M316.328125,7.242188 L328.773438,20.074219 L349.777344,0.332031 L358.925781,15.410156 L375.003906,13.667969 L388.117188,27.039062 L406.191406,8.257812" id="Path-35-Copy-2" stroke="#9E48FF" stroke-width="2" fill-opacity="0.00999999978" fill="#D8D8D8" stroke-linecap="round" stroke-linejoin="round" stroke-dasharray="1,8"></path>
                    </g>
                </g>
                <polyline id="line-chart" stroke="url(#linearGradient-2)" stroke-width="2" fill-opacity="0" fill="#D8D8D8" stroke-linecap="round" stroke-linejoin="round" points="58 112.375633 80.2257055 100.949051 95.0805601 118.04631 115.801526 103.55442 141.673901 108.792969 157.267651 86.308594 167.900464 88.53125 184.71687 74.453125 192.384839 81.863281 202.533276 74.195312 213.388745 92.9375 223.27937 44.523438 235.169995 36.335938 251.728589 0 264.322339 62.230469 273.025464 36.335938 284.138745 48.15625 293.771557 25.410156 316.701245 18.222656"></polyline>
            </g>
            <g id="Group">
                <rect id="Rectangle-103-Copy-3" stroke="#FFD347" fill-opacity="0.3" fill="#FFD347" x="49" y="280" width="6" height="6" rx="3"></rect>
                <polygon id="Rectangle-103-Copy-3" stroke="#43FFB0" fill-opacity="0.3" fill="#43FFB0" points="83 282 83 288 77 288"></polygon>
                <rect id="Rectangle-103-Copy-5" stroke="#FFD347" fill-opacity="0.3" fill="#FFD347" x="101" y="241" width="9" height="9" rx="4.5"></rect>
                <polygon id="Rectangle-103-Copy-6" stroke="#43FFB0" fill-opacity="0.3" fill="#43FFB0" points="141 219 141 234 126 234"></polygon>
                <polygon id="Rectangle-103-Copy-18" stroke="#43FFB0" fill-opacity="0.3" fill="#43FFB0" points="110 208 110 214 104 214"></polygon>
                <rect id="Rectangle-103-Copy-7" stroke="#F84378" fill-opacity="0.3" fill="#F84378" x="0.25" y="190.25" width="17.5" height="17.5" rx="8.75"></rect>
                <rect id="Rectangle-103-Copy-6" stroke="#3BABD5" fill-opacity="0.3" fill="#3BABD5" x="158.25" y="209.25" width="17.5" height="17.5"></rect>
                <rect id="Rectangle-103-Copy-6" stroke="#3BABD5" fill-opacity="0.3" fill="#3BABD5" x="238.25" y="218.25" width="11.5" height="11.5"></rect>
                <rect id="Rectangle-103-Copy-7" stroke="#3BABD5" fill-opacity="0.3" fill="#3BABD5" x="52.25" y="183.25" width="22.5" height="22.5"></rect>
                <rect id="Rectangle-103-Copy-17" stroke="#F84378" fill-opacity="0.3" fill="#F84378" x="552.25" y="127.25" width="8.5" height="8.5" rx="4.25"></rect>
                <rect id="Rectangle-103-Copy-3" stroke="#FFD347" fill-opacity="0.439999998" fill="#FFD347" x="225" y="268" width="12" height="12" rx="6"></rect>
                <rect id="Rectangle-103-Copy-4" stroke="#FFD347" fill-opacity="0.3" fill="#FFD347" x="287" y="222" width="21" height="21" rx="10.5"></rect>
                <rect id="Rectangle-103-Copy-8" stroke="#3BABD5" fill-opacity="0.3" fill="#3BABD5" x="272.25" y="170.25" width="27.5" height="27.5"></rect>
                <rect id="Rectangle-103-Copy-4" stroke="#3BABD5" fill-opacity="0.3" fill="#3BABD5" x="249.25" y="205.25" width="30.5" height="30.5"></rect>
                <polygon id="Rectangle-103-Copy-11" stroke="#43FFB0" fill-opacity="0.3" fill="#43FFB0" points="313 124 313 149 288 149"></polygon>
                <rect id="Rectangle-103-Copy-12" stroke="#FFD347" fill-opacity="0.3" fill="#FFD347" x="173" y="91" width="25" height="25" rx="12.5"></rect>
                <polygon id="Rectangle-103-Copy-19" stroke="#43FFB0" fill-opacity="0.3" fill="#43FFB0" points="524 50 524 75 499 75"></polygon>
                <polygon id="Rectangle-103-Copy-13" stroke="#43FFB0" fill-opacity="0.3" fill="#43FFB0" points="265 80 265 89 256 89"></polygon>
                <rect id="Rectangle-103-Copy-6" stroke="#F84378" fill-opacity="0.3" fill="#F84378" x="312.25" y="127.25" width="30.5" height="30.5" rx="15.25"></rect>
                <rect id="Rectangle-103-Copy-7" stroke="#FFD347" fill-opacity="0.3" fill="#FFD347" x="270" y="187" width="23" height="23" rx="11.5"></rect>
                <rect id="Rectangle-103-Copy-8" stroke="#FFD347" fill-opacity="0.3" fill="#FFD347" x="242" y="179" width="34" height="34" rx="17"></rect>
                <rect id="Rectangle-103-Copy-13" stroke="#FFD347" fill-opacity="0.3" fill="#FFD347" x="130" y="70" width="18" height="18" rx="9"></rect>
                <polygon id="Rectangle-103-Copy-8" stroke="#43FFB0" fill-opacity="0.3" fill="#43FFB0" points="321 149 321 167 303 167"></polygon>
                <rect id="Rectangle-103-Copy-10" stroke="#FFD347" fill-opacity="0.3" fill="#FFD347" x="150" y="124" width="25" height="25" rx="12.5"></rect>
                <rect id="Rectangle-103-Copy-11" stroke="#FFD347" fill-opacity="0.3" fill="#FFD347" x="153" y="107" width="18" height="18" rx="9"></rect>
                <rect id="Rectangle-103-Copy-14" stroke="#FFD347" fill-opacity="0.3" fill="#FFD347" x="164" y="81" width="21" height="21" rx="10.5"></rect>
                <rect id="Rectangle-103-Copy-16" stroke="#FFD347" fill-opacity="0.3" fill="#FFD347" x="156" y="11" width="12" height="12" rx="6"></rect>
                <rect id="Rectangle-103-Copy-8" stroke="#FFD347" fill-opacity="0.3" fill="#FFD347" x="167" y="148" width="25" height="25" rx="12.5"></rect>
                <polygon id="Rectangle-103-Copy-7" stroke="#43FFB0" fill-opacity="0.3" fill="#43FFB0" points="363 150 363 168 345 168"></polygon>
                <rect id="Rectangle-103-Copy-9" stroke="#F84378" fill-opacity="0.3" fill="#F84378" x="370.25" y="139.25" width="24.5" height="24.5" rx="12.25"></rect>
                <rect id="Rectangle-103-Copy-10" stroke="#FFD347" fill-opacity="0.3" fill="#FFD347" x="235" y="130" width="12" height="12" rx="6"></rect>
                <rect id="Rectangle-103-Copy-12" stroke="#FFD347" fill-opacity="0.3" fill="#FFD347" x="261" y="90" width="12" height="12" rx="6"></rect>
                <rect id="Rectangle-103-Copy-10" stroke="#FFD347" fill-opacity="0.3" fill="#FFD347" x="434" y="135" width="15" height="15" rx="7.5"></rect>
                <rect id="Rectangle-103-Copy-12" stroke="#FFD347" fill-opacity="0.3" fill="#FFD347" x="431" y="106" width="15" height="15" rx="7.5"></rect>
                <rect id="Rectangle-103-Copy-11" stroke="#FFD347" fill-opacity="0.3" fill="#FFD347" x="463" y="100" width="6" height="6" rx="3"></rect>
                <rect id="Rectangle-103-Copy-12" stroke="#FFD347" fill-opacity="0.3" fill="#FFD347" x="490" y="99" width="14" height="14" rx="7"></rect>
                <rect id="Rectangle-103-Copy-16" stroke="#FE865A" fill-opacity="0.3" fill="#FE865A" x="511" y="44" width="14" height="14"></rect>
                <rect id="Rectangle-103-Copy-16" stroke="#FE865A" fill-opacity="0.3" fill="#FE865A" x="533" y="81" width="21" height="21"></rect>
                <rect id="Rectangle-103-Copy-17" stroke="#FE865A" fill-opacity="0.3" fill="#FE865A" x="542" y="0" width="9" height="9"></rect>
                <rect id="Rectangle-103-Copy-15" stroke="#FE865A" fill-opacity="0.3" fill="#FE865A" x="590" y="41" width="12" height="12"></rect>
                <rect id="Rectangle-103-Copy-16" stroke="#FE865A" fill-opacity="0.3" fill="#FE865A" x="593" y="18" width="9" height="9"></rect>
                <rect id="Rectangle-103-Copy-16" stroke="#FE865A" fill-opacity="0.3" fill="#FE865A" x="622" y="22" width="6" height="6"></rect>
            </g>
        </g>
    </g>
</svg>