<svg width="752" height="290" xmlns="http://www.w3.org/2000/svg"><defs><linearGradient x1="98.59%" y1="50.479%" x2="18.164%" y2="51.892%" id="a"><stop stop-color="#30ECD5" stop-opacity="0" offset="0%"/><stop stop-color="#30ECD5" offset="41.813%"/><stop stop-color="#FD3" stop-opacity="0" offset="100%"/></linearGradient><linearGradient x1="100%" y1="42.641%" x2="2.251%" y2="60.356%" id="b"><stop stop-color="#2DF0DB" offset="0%"/><stop stop-color="#FFE132" stop-opacity=".537" offset="100%"/></linearGradient></defs><g fill-rule="nonzero" fill="none"><path fill="url(#a)" opacity=".122" d="M73.193 45.239l28.154-3.283 19.926 4.644 27.546-3.764 32.325 1.198 20.016-6.203 13.648.613 21.585-3.884 9.843 2.045 13.026-2.116 13.934 5.17 12.696-13.356 15.263-2.259 21.254-10.024 16.165 17.168 11.172-7.144 14.265 3.261 12.364-6.275 29.433-1.983v84.973H17.752L.808 50.345" transform="translate(345 125)"/><path d="M661.328 132.242l12.445 12.832 21.004-19.742 9.149 15.078 16.078-1.742 13.113 13.371 18.074-18.781" stroke="#9E48FF" stroke-width="2" fill-opacity=".01" fill="#D8D8D8" stroke-linecap="round" stroke-linejoin="round" stroke-dasharray="1,8"/><path stroke="url(#b)" stroke-width="2" fill="none" stroke-linecap="round" stroke-linejoin="round" d="M58 112.376l22.226-11.427 14.855 17.097 20.72-14.492 25.873 5.239 15.594-22.484L167.9 88.53l16.817-14.078 7.668 7.41 10.148-7.668 10.856 18.743 9.89-48.415 11.891-8.187L251.729 0l12.593 62.23 8.703-25.894 11.114 11.82 9.633-22.746 22.93-7.187" transform="translate(345 114)"/><g transform="translate(1 1)"><rect stroke="#FFD347" fill-opacity=".3" fill="#FFD347" x="49" y="280" width="6" height="6" rx="3"/><path stroke="#43FFB0" fill-opacity=".3" fill="#43FFB0" d="M83 282v6h-6z"/><rect stroke="#FFD347" fill-opacity=".3" fill="#FFD347" x="101" y="241" width="9" height="9" rx="4.5"/><path stroke="#43FFB0" fill-opacity=".3" fill="#43FFB0" d="M141 219v15h-15zM110 208v6h-6z"/><rect stroke="#F84378" fill-opacity=".3" fill="#F84378" x=".25" y="190.25" width="17.5" height="17.5" rx="8.75"/><path stroke="#3BABD5" fill-opacity=".3" fill="#3BABD5" d="M158.25 209.25h17.5v17.5h-17.5zM238.25 218.25h11.5v11.5h-11.5zM52.25 183.25h22.5v22.5h-22.5z"/><rect stroke="#F84378" fill-opacity=".3" fill="#F84378" x="552.25" y="127.25" width="8.5" height="8.5" rx="4.25"/><rect stroke="#FFD347" fill-opacity=".44" fill="#FFD347" x="225" y="268" width="12" height="12" rx="6"/><rect stroke="#FFD347" fill-opacity=".3" fill="#FFD347" x="287" y="222" width="21" height="21" rx="10.5"/><path stroke="#3BABD5" fill-opacity=".3" fill="#3BABD5" d="M272.25 170.25h27.5v27.5h-27.5zM249.25 205.25h30.5v30.5h-30.5z"/><path stroke="#43FFB0" fill-opacity=".3" fill="#43FFB0" d="M313 124v25h-25z"/><rect stroke="#FFD347" fill-opacity=".3" fill="#FFD347" x="173" y="91" width="25" height="25" rx="12.5"/><path stroke="#43FFB0" fill-opacity=".3" fill="#43FFB0" d="M524 50v25h-25zM265 80v9h-9z"/><rect stroke="#F84378" fill-opacity=".3" fill="#F84378" x="312.25" y="127.25" width="30.5" height="30.5" rx="15.25"/><rect stroke="#FFD347" fill-opacity=".3" fill="#FFD347" x="270" y="187" width="23" height="23" rx="11.5"/><rect stroke="#FFD347" fill-opacity=".3" fill="#FFD347" x="242" y="179" width="34" height="34" rx="17"/><rect stroke="#FFD347" fill-opacity=".3" fill="#FFD347" x="130" y="70" width="18" height="18" rx="9"/><path stroke="#43FFB0" fill-opacity=".3" fill="#43FFB0" d="M321 149v18h-18z"/><rect stroke="#FFD347" fill-opacity=".3" fill="#FFD347" x="150" y="124" width="25" height="25" rx="12.5"/><rect stroke="#FFD347" fill-opacity=".3" fill="#FFD347" x="153" y="107" width="18" height="18" rx="9"/><rect stroke="#FFD347" fill-opacity=".3" fill="#FFD347" x="164" y="81" width="21" height="21" rx="10.5"/><rect stroke="#FFD347" fill-opacity=".3" fill="#FFD347" x="156" y="11" width="12" height="12" rx="6"/><rect stroke="#FFD347" fill-opacity=".3" fill="#FFD347" x="167" y="148" width="25" height="25" rx="12.5"/><path stroke="#43FFB0" fill-opacity=".3" fill="#43FFB0" d="M363 150v18h-18z"/><rect stroke="#F84378" fill-opacity=".3" fill="#F84378" x="370.25" y="139.25" width="24.5" height="24.5" rx="12.25"/><rect stroke="#FFD347" fill-opacity=".3" fill="#FFD347" x="235" y="130" width="12" height="12" rx="6"/><rect stroke="#FFD347" fill-opacity=".3" fill="#FFD347" x="261" y="90" width="12" height="12" rx="6"/><rect stroke="#FFD347" fill-opacity=".3" fill="#FFD347" x="434" y="135" width="15" height="15" rx="7.5"/><rect stroke="#FFD347" fill-opacity=".3" fill="#FFD347" x="431" y="106" width="15" height="15" rx="7.5"/><rect stroke="#FFD347" fill-opacity=".3" fill="#FFD347" x="463" y="100" width="6" height="6" rx="3"/><rect stroke="#FFD347" fill-opacity=".3" fill="#FFD347" x="490" y="99" width="14" height="14" rx="7"/><path stroke="#FE865A" fill-opacity=".3" fill="#FE865A" d="M511 44h14v14h-14zM533 81h21v21h-21zM542 0h9v9h-9zM590 41h12v12h-12zM593 18h9v9h-9zM622 22h6v6h-6z"/></g></g></svg>