<?xml version="1.0" encoding="UTF-8"?>
<svg width="510px" height="322px" viewBox="0 0 510 322" version="1.1" xmlns="http://www.w3.org/2000/svg" xmlns:xlink="http://www.w3.org/1999/xlink">
    <!-- Generator: Sketch 55.1 (78136) - https://sketchapp.com -->
    <title>map</title>
    <desc>Created with Sketch.</desc>
    <g id="Page-1" stroke="none" stroke-width="1" fill="none" fill-rule="evenodd">
        <g id="map">
            <g id="usa">
                <g id="outlines" transform="translate(5.000000, 0.000000)" fill="#DEE5EF" fill-rule="nonzero">
                    <path d="M83.5805223,245.735849 L83.4156692,292.610635 L84.2948857,293.15952 L85.9983678,293.269297 L86.8226333,292.665523 L88.2513602,292.665523 L88.3612622,294.25729 L92.2078346,297.989708 L92.4825898,299.41681 L94.3509249,298.373928 L94.6806311,298.264151 L94.8454842,296.562607 L95.6697497,295.684391 L96.2742111,295.574614 L97.3182807,294.751286 L99.0217628,295.903945 L99.351469,297.495712 L100.395539,298.099485 L101,299.41681 L103.14309,300.404803 L105.011425,303.698113 L106.495103,305.838765 L107.758977,307.320755 L108.583243,309.35163 L111.330794,310.339623 L114.188248,311.492281 L114.737758,313.907376 L115.012514,315.608919 L114.463003,317.475129 L113.473885,318.737564 L112.594668,318.298456 L111.770403,316.596913 L110.286725,315.773585 L109.297606,315.169811 L108.857998,315.608919 L109.682263,317.090909 L109.792165,319.121784 L109.187704,319.396226 L108.143634,318.353345 L106.989663,317.639794 L107.264418,318.51801 L107.978781,319.506003 L107.539173,319.945111 C107.539173,319.945111 107.099565,319.780446 106.82481,319.396226 C106.550054,319.066895 105.670838,317.530017 105.670838,317.530017 L105.121328,316.267581 C105.121328,316.267581 104.956474,316.981132 104.571817,316.816467 C104.242111,316.651801 103.857454,315.993139 103.857454,315.993139 L104.846572,314.950257 L104.022307,314.12693 L104.022307,311.382504 L103.582699,311.382504 L103.14309,313.248714 L102.538629,313.523156 L101.989119,311.492281 L101.659412,309.461407 L101.219804,309.186964 L101.384657,312.315609 L101.384657,312.919383 L100.560392,312.205832 L98.5821545,308.912521 L97.4281828,308.638079 L97.0984766,306.607204 L96.2192601,305.015437 L95.3400435,304.411664 L95.3400435,303.149228 L96.4940152,302.435678 L96.2192601,302.271012 L94.7905332,302.600343 L92.922198,301.283019 L91.4934712,299.691252 L88.8558215,298.264151 L86.6577802,296.83705 L87.3721436,295.080617 L87.3721436,294.202401 L86.383025,295.080617 L84.789445,295.684391 L82.7562568,295.080617 L79.6240479,293.763293 L76.601741,293.763293 L76.2720348,294.037736 L72.7002176,291.897084 L71.5462459,291.732419 L70.062568,288.548885 L68.0843308,288.713551 L66.1060936,289.536878 L66.3808487,292.006861 L66.9853101,290.415094 L67.5348205,290.57976 L66.710555,292.994854 L68.468988,291.512864 L68.7986942,292.391081 L66.6556039,294.806175 L65.9412405,294.641509 L65.6664853,293.598628 L64.9521219,293.15952 L64.2377584,293.763293 L62.7540805,292.7753 L61.0505985,293.927959 L60.0614799,295.080617 L58.1931447,296.233276 L55.6104461,296.123499 L55.335691,294.97084 L57.3688792,294.641509 L57.3688792,293.927959 L56.1050054,293.598628 L56.6545158,292.281304 L57.9183896,290.140652 L57.9183896,289.152659 L58.0282916,288.713551 L60.4461371,287.451115 L60.9956474,288.164666 L62.4793254,288.164666 L61.7649619,286.737564 L59.7317737,286.572899 L56.984222,288.054889 L55.6653972,289.921098 L54.6762786,291.348199 L54.0718172,292.610635 L51.7638738,293.433962 L50.0603917,294.861063 L49.8955386,295.73928 L51.1594124,296.288165 L51.5990207,297.440823 L50.1153428,299.197256 L46.5435256,301.502573 L42.2573449,303.80789 L41.1033732,304.411664 L38.1909684,305.015437 L35.2785637,306.277873 L36.2676823,306.991424 L35.4434168,307.814751 L35.1686616,308.418525 L33.6849837,307.86964 L31.9265506,307.979417 L31.4869423,309.241852 L30.937432,309.241852 L31.1022851,307.924528 L29.1240479,308.638079 L27.5304679,309.186964 L25.6621328,308.473413 L24.0685528,309.516295 L22.3101197,309.516295 L21.156148,310.229846 L20.2769314,310.668954 L19.1229597,310.504288 L17.6942329,309.900515 L16.4303591,310.229846 L15.8808487,310.778731 L15.0016322,310.174957 L15.0016322,309.132075 L16.7051143,308.418525 L20.1670294,308.747856 L22.5848749,307.86964 L23.7388466,306.716981 L25.3324266,306.38765 L26.3215452,305.948542 L27.8052231,306.058319 L28.6844396,306.77187 L29.2339499,306.607204 L30.4978237,305.125214 L32.2013058,304.576329 L34.0696409,304.246998 L34.7840044,304.082333 L35.1137106,304.356775 L35.5533188,304.356775 L36.2676823,302.325901 L38.4657236,301.502573 L39.5097933,299.471698 L40.773667,297.001715 L41.6528836,296.178388 L41.8177367,294.751286 L40.9385201,295.464837 L39.070185,295.794168 L38.7404788,294.476844 L38.0261153,294.312178 L37.476605,294.861063 L37.3667029,296.45283 L36.5424374,296.343053 L35.7181719,293.15952 L35.0038085,293.87307 L34.3993471,293.598628 L34.234494,292.555746 L32.0364527,292.665523 L30.882481,293.269297 L29.4537541,293.104631 L30.2780196,292.281304 L30.5527748,290.854202 L30.2230686,289.811321 L31.0473341,289.262436 L31.7616975,289.152659 L31.4319913,288.164666 L31.4319913,285.749571 L30.882481,285.200686 L30.4428727,286.024014 L27.0908596,286.024014 L26.2665941,285.310463 L25.9368879,283.169811 L24.7829162,281.193825 L24.7829162,280.64494 L25.9368879,280.205832 L26.04679,279.053173 L26.6512514,278.4494 L26.2116431,278.174957 L25.4972797,278.4494 L24.8928183,276.96741 L25.4423286,274.222985 L27.9151251,272.466552 L29.343852,271.588336 L30.3879217,269.557461 L31.8715996,268.843911 L33.3003264,269.447684 L33.4651795,270.765009 L34.7840044,270.600343 L36.5424374,269.283019 L37.421654,269.61235 L37.9711643,269.941681 L38.8503808,269.941681 L40.1142546,269.22813 L40.5538629,266.813036 C40.5538629,266.813036 40.718716,265.221269 41.1033732,264.946827 C41.4330794,264.672384 41.6528836,264.397942 41.6528836,264.397942 L41.0484222,263.35506 L39.6196953,263.794168 L37.8612622,264.233276 L36.8171926,263.958834 L34.8389554,262.97084 L32.0914037,262.861063 L30.1131665,260.830189 L30.3879217,258.689537 L30.7176279,257.372213 L29.5636561,256.38422 L28.5195865,254.353345 L28.7943417,253.914237 L32.531012,253.639794 L33.6849837,253.639794 L34.234494,254.188679 L34.5642002,254.188679 L34.4542982,253.310463 L36.5973885,252.981132 L38.0261153,253.145798 L38.8503808,253.749571 L38.0261153,254.90223 L37.7513602,255.725557 L39.2350381,256.603774 L41.9825898,257.591767 L42.9717084,257.042882 L41.7078346,254.627787 L41.1583243,252.871355 L41.7078346,252.432247 L39.8394995,251.389365 L39.5647443,250.785592 L39.8394995,249.907376 L39.3998912,247.766724 L37.8063112,245.186964 L36.4874864,242.881647 L38.0810664,241.838765 L39.8394995,241.838765 L40.8286181,242.168096 L43.1365615,242.058319 L45.1697497,240.082333 L45.7742111,238.380789 L47.8073993,237.063465 L48.6866159,237.61235 L50.1702938,237.283019 L52.203482,236.13036 L52.8079434,236.020583 L53.3574538,236.459691 L55.8302503,236.349914 L57.3139282,234.64837 L57.9183896,234.64837 L59.8966268,235.965695 L60.9406964,237.118353 L60.6659412,237.722127 L60.9956474,238.325901 L61.874864,237.447684 L64.0179543,237.61235 L64.1828074,239.643225 L65.226877,240.466552 L69.1284004,240.795883 L72.5903156,243.101201 L73.4145811,242.552316 L76.2720348,243.979417 L77.4260065,243.650086 L78.4700762,243.210978 L81.1077258,244.253859 L83.5805223,245.735849 Z M20.3318825,261.598628 L21.4858542,264.507719 L21.3759521,265.056604 L19.7823721,264.891938 L18.7932535,262.696398 L17.8041349,261.87307 L16.4853101,261.87307 L16.3754081,260.445969 L17.3645267,259.128645 L17.968988,260.445969 L18.7932535,261.269297 L20.3318825,261.598628 Z M18.9031556,279.986278 L20.9363439,280.425386 L22.9695321,280.974271 L23.4091404,281.523156 L22.5299238,283.554031 L20.8264418,283.444254 L18.9581066,281.468268 L18.9031556,279.986278 Z M7.52829162,272.246998 L8.13275299,273.674099 L8.73721436,274.552316 L8.13275299,274.991424 L6.97878128,273.28988 L6.97878128,272.246998 L7.52829162,272.246998 Z M0,312.370497 L1.86833515,311.108062 L3.73667029,310.559177 L5.16539717,310.723842 L5.44015234,311.602058 L6.48422198,311.876501 L7.52829162,310.833619 L7.36343852,309.955403 L8.84711643,309.626072 L10.4406964,311.053173 L9.83623504,312.041166 L7.41838955,312.64494 L5.93471164,312.370497 L3.90152339,311.766724 L1.48367791,312.590051 L0.604461371,312.754717 L0,312.370497 Z M26.8710555,309.900515 L27.750272,310.943396 L28.9042437,310.06518 L28.0799782,309.35163 L26.8710555,309.900515 Z M28.4646355,311.54717 L29.0690968,310.284734 L30.2230686,310.4494 L29.7834603,311.492281 L28.4646355,311.492281 L28.4646355,311.54717 Z M41.4330794,310.504288 L42.2573449,311.492281 L42.8068553,310.888508 L42.367247,309.845626 L41.4330794,310.504288 Z M46.2687704,303.643225 L46.8732318,306.826758 L48.4668118,307.265866 L51.2143634,305.674099 L53.6322089,304.246998 L52.7529924,302.929674 L53.0277476,301.61235 L51.8737758,302.325901 L50.2801959,301.886792 L51.1594124,301.283019 L52.203482,301.722127 L54.3465724,300.734134 L54.6213275,299.910806 L53.3025027,299.471698 L53.742111,298.428816 L52.2584331,299.471698 L49.6757345,301.447684 L47.0380849,303.039451 L46.2687704,303.643225 Z M69.5130577,292.7753 L70.8318825,291.951973 L70.2823721,290.963979 L69.2932535,291.512864 L69.5130577,292.7753 Z" id="AK"></path>
                    <path d="M123.145267,281.74271 L124.189336,279.766724 L125.45321,279.602058 L125.618063,280.041166 L124.464091,281.74271 L123.145267,281.74271 Z M128.750272,279.711835 L132.102285,281.138937 L133.256257,280.974271 L134.135473,278.833619 L133.805767,276.96741 L131.497824,276.692967 L129.299782,277.680961 L128.750272,279.711835 Z M145.620239,285.200686 L147.653428,288.219554 L148.972252,288.054889 L149.576714,287.780446 L150.400979,288.493997 L152.434168,288.38422 L152.983678,287.560892 L151.390098,286.572899 L150.346028,284.542024 L149.192057,282.566038 L146.004897,284.157804 L145.620239,285.200686 Z M156.720348,290.085763 L157.434712,289.042882 L160.01741,289.591767 L160.347116,289.317324 L163.699129,289.646655 L163.534276,290.360206 L162.10555,291.183533 L159.687704,291.018868 L156.720348,290.085763 Z M159.632753,292.939966 L160.676823,295.080617 L162.380305,294.476844 L162.545158,293.598628 L161.665941,292.445969 L159.632753,292.281304 L159.632753,292.939966 Z M163.479325,292.281304 L164.743199,290.689537 L167.325898,292.006861 L169.743743,292.610635 L172.161589,294.092624 L172.161589,295.135506 L170.183351,296.123499 L167.545702,296.672384 L166.226877,295.849057 L163.479325,292.281304 Z M172.601197,300.843911 L173.480413,300.13036 L175.348749,301.008576 L179.525027,302.984563 L181.393362,304.137221 L182.272579,305.454545 L183.316649,307.86964 L185.51469,309.296741 L185.349837,310.010292 L183.206746,311.766724 L180.898803,312.590051 L180.074538,312.26072 L178.371055,313.248714 L177.052231,315.005146 L175.788357,316.596913 L174.799238,316.487136 L172.821001,315.060034 L172.656148,312.590051 L172.985854,311.272727 L172.106638,308.144082 L170.952666,307.156089 L170.842764,305.728988 L172.106638,305.180103 L173.260609,303.478559 L173.535365,302.929674 L172.656148,301.941681 L172.601197,300.843911 Z" id="HI"></path>
                    <polygon id="AL" points="340.421654 252.70669 340.75136 252.816467 341.465724 251.334477 342.289989 248.919383 343.553863 249.248714 345.257345 252.542024 345.257345 253.090909 343.773667 254.133791 345.257345 254.298456 348.114799 252.926244 347.949946 248.754717 346.57617 247.766724 345.477149 246.668954 345.696953 244.473413 351.466812 243.650086 365.589227 242.058319 369.270947 241.728988 372.348205 241.783877 372.073449 240.576329 371.249184 240.137221 370.754625 239.533448 371.304135 238.106346 371.084331 235.252144 370.205114 232.782161 370.644723 229.982847 371.57889 227.348199 371.468988 226.415094 370.479869 226.030875 370.205114 224.054889 368.721436 222.188679 367.622416 218.620926 366.853101 214.943396 365.863983 212.198971 363.775843 203.41681 361.852557 199.080617 361.412949 196.006861 361.4679 194.799314 356.522307 195.238422 343.663765 196.445969 336.959739 196.885077 336.849837 200.397942 336.959739 209.564322 336.575082 226.57976 336.410229 234.319039 337.948857 244.638079 338.828074 252.70669"></polygon>
                    <polygon id="AR" points="317.781828 186.675815 314.264962 186.291595 314.759521 184.590051 316.463003 183.16295 316.792709 181.900515 315.803591 180.308748 298.274211 180.96741 285.47062 181.35163 272.502176 181.516295 273.326442 185.303602 273.381393 189.969125 274.150707 195.951973 274.31556 216.919383 275.469532 217.797599 277.118063 217.138937 278.711643 217.797599 278.931447 223.341338 292.779108 223.231561 307.505985 222.792453 308.000544 221.749571 307.835691 219.663808 306.901523 217.962264 307.725789 217.193825 306.956474 215.986278 307.341132 214.668954 307.945593 211.430532 309.429271 210.168096 308.989663 208.960549 311.187704 205.886792 312.56148 205.283019 312.506529 204.349914 312.231774 203.41681 313.825354 200.233276 315.199129 199.629503 315.309032 197.818182 316.463003 197.049743 316.957563 194.799314 316.188248 192.603774 318.496192 191.286449 318.661045 190.133791 319.320457 187.828473 319.815016 186.12693"></polygon>
                    <polygon id="AZ" points="69.2932535 210.607204 69.1284004 211.430532 69.4031556 211.979417 79.788901 217.852487 86.4379761 222.024014 94.515778 226.744425 103.747552 232.233276 110.506529 233.5506 124.464091 235.03259 127.761153 213.296741 131.607726 184.150943 134.025571 167.135506 120.507617 165.15952 87.1523395 159.121784 87.0424374 159.725557 85.6137106 168.782161 84.4597388 170.867925 82.9211099 170.758148 82.2616975 169.331046 80.8329706 169.111492 80.1735582 168.507719 79.5690968 168.562607 78.4151251 169.495712 78.250272 173.22813 78.0854189 174.051458 77.8106638 180.912521 76.9863983 182.229846 76.7665941 184.041166 78.3052231 186.785592 78.9096844 189.80446 79.2943417 190.408233 79.898803 190.90223 79.6789989 192.219554 78.7448313 192.878216 76.8764962 193.756432 75.9972797 194.744425 75.1180631 196.720412 74.8433079 199.409949 73.1947769 201.001715 72.1507073 201.495712 72.0957563 204.679245 71.7660501 205.557461 72.0408052 205.996569 74.1838955 206.216123 73.6893362 207.862779 72.7551687 209.180103 70.7219804 209.399657"></polygon>
                    <path d="M62.4793254,208.521441 L51.6539717,207.039451 L46.1588683,206.216123 L45.8841132,205.22813 L45.8841132,200.068611 L45.7192601,198.312178 L44.2905332,196.006861 L43.8509249,194.744425 L41.7078346,192.439108 L40.1142546,189.859348 L38.6305767,189.749571 L36.8721436,189.310463 L36.7072905,188.761578 L37.531556,188.432247 L37.2018498,186.675815 L36.3775843,185.523156 L33.7399347,185.084048 L31.5968444,183.931389 L30.992383,182.668954 L29.5636561,180.034305 L27.9700762,178.332762 L26.3764962,178.332762 L24.2334059,177.180103 L21.7606094,176.19211 L19.4526659,175.917667 L18.1338411,174.435678 L18.4085963,173.392796 L19.3977149,169.495712 L19.8373232,168.45283 L19.8373232,167.135506 L18.9581066,166.586621 L18.6833515,164.994854 L17.859086,163.567753 L15.9907508,160.38422 L15.2763874,158.682676 L14.4521219,156.102916 L13.5729053,153.193825 L11.8144723,150.778731 L11.5397171,149.186964 L11.9793254,147.046312 L12.5837867,147.046312 L13.7377584,146.168096 L14.3422198,144.19211 L13.7927095,142.71012 L12.3090316,142.435678 L11.2649619,141.008576 L10.1109902,138.977702 L10.0010881,134.476844 L10.3307943,133.433962 L10.6605005,132.171527 L10.9352557,130.854202 L7.80304679,127.396226 L7.80304679,126.243568 L7.96789989,125.969125 L8.13275299,124.212693 L7.41838955,122.017153 L6.15451578,119.382504 L4.67083787,116.912521 L3.68171926,114.77187 L4.2312296,112.740995 L4.5609358,109.557461 L5.55005441,107.855918 L5.71490751,104.288165 L5.11044614,102.312178 L4.2312296,100.006861 L2.74755169,97.7015437 L3.18715996,95.9451115 L4.01142546,93.6397942 L5.00054407,93.2006861 L5.16539717,92.5969125 L6.86887922,91.1698113 L9.72633297,84.6929674 L9.83623504,80.6312178 L10.7649075,77.941681 L32.0254625,84.4185249 L46.0929271,88.0411664 L41.6968444,105.221269 L36.9325898,123.389365 L43.8729053,133.927959 L67.0402612,168.123499 L76.4368879,182.4494 L76.2170838,184.150943 L77.7557127,187.005146 L78.3601741,189.969125 L78.9096844,190.792453 L79.2943417,191.121784 L79.1844396,191.890223 L78.4151251,192.439108 L76.54679,193.317324 L75.5027203,194.469983 L74.5685528,196.610635 L74.2937976,199.190395 L72.8650707,200.562607 L71.601197,201.166381 L71.5462459,204.569468 L71.2165397,205.61235 L71.7660501,206.545455 L73.4145811,206.71012 L73.1947769,207.588336 L72.4254625,208.686106 L70.2823721,209.015437 L62.4793254,208.521441 Z M21.8705114,181.680961 L22.5848749,182.504288 L22.4749728,183.217839 L20.7165397,183.16295 L20.3868335,182.504288 L20.0571273,181.680961 L21.8705114,181.680961 Z M22.9145811,181.680961 L23.5739935,181.35163 L25.5522307,182.504288 L27.2557127,183.16295 L26.7611534,183.492281 L24.2883569,183.382504 L23.4091404,182.504288 L22.9145811,181.680961 Z M34.289445,192.548885 L35.2785637,193.811321 L35.7181719,194.360206 L36.5424374,194.689537 L36.8721436,193.866209 L36.3226333,192.878216 L34.8389554,191.780446 L34.234494,191.890223 L34.234494,192.548885 L34.289445,192.548885 Z M33.5201306,197.324185 L34.5092492,199.080617 L35.1686616,200.123499 L34.3443961,200.233276 L33.6300326,199.574614 C33.6300326,199.574614 33.2453754,198.751286 33.2453754,198.531732 L33.2453754,197.324185 L33.5201306,197.324185 Z" id="CA"></path>
                    <polygon id="CO" points="203.978237 125.969125 184.195865 124.048027 140.729597 119.327616 139.520675 131.457976 135.674102 159.121784 134.630033 166.641509 153.313384 168.782161 173.920022 171.197256 192.98803 172.843911 200.846028 173.173242"></polygon>
                    <polygon id="CT" points="463.237214 101.488851 465.215452 99.7324185 466.259521 98.5797599 466.699129 98.9090909 468.182807 98.0857633 471.040261 97.4819897 474.886834 95.5608919 474.557127 93.2555746 474.117519 90.8404803 473.238303 87.5471698 470.875408 88.1509434 458.896083 90.7307033 459.225789 92.432247 460.050054 96.4391081 460.050054 100.994854 459.555495 102.147513 460.489663 103.35506"></polygon>
                    <polygon id="DE" points="453.565832 132.391081 453.016322 132.665523 451.038085 131.348199 450.048966 128.768439 449.004897 126.792453 447.741023 126.243568 446.587051 124.267581 446.861806 123.169811 447.136561 121.907376 447.191513 121.303602 446.861806 121.358491 445.927639 121.907376 444.828618 122.84048 444.718716 123.005146 445.48803 125.255575 446.751904 128.329331 448.785092 137.166381 451.532644 137.001715 454.829706 136.397942"></polygon>
                    <path d="M407.297062,241.070326 L404.439608,240.686106 L404.054951,241.125214 L404.879217,243.540309 L404.659412,246.394511 L402.40642,245.845626 L402.296518,244.308748 L400.043526,244.308748 L397.131121,244.692967 L379.326986,245.735849 L374.821001,245.571184 L373.886834,244.638079 L372.513058,242.332762 L369.270947,242.332762 L365.644178,242.607204 L346.191513,244.912521 L346.026659,246.4494 L346.905876,247.327616 L348.499456,248.425386 L348.664309,253.036021 L350.477693,252.70669 L353.774755,251.554031 L357.071817,251.279588 L359.489663,250.950257 L363.665941,251.93825 L368.116975,254.078902 L368.996192,254.90223 L370.589771,255.506003 L371.468988,256.548885 L371.633841,258.030875 L373.392274,257.317324 L375.535365,257.317324 L377.513602,256.274443 L379.54679,254.298456 L381.250272,254.408233 L381.525027,253.80446 L381.085419,253.255575 L381.195321,252.212693 L383.393362,251.773585 L384.822089,251.773585 L386.415669,252.596913 L388.723613,253.42024 L390.042437,255.451115 L391.526115,256 L392.130577,257.866209 L393.998912,258.744425 L394.878128,260.171527 L395.922198,260.500858 L398.779652,261.214408 L399.494015,262.915952 L401.142546,264.946827 L401.142546,270.161235 L400.318281,272.740995 L400.483134,274.222985 L401.197497,276.857633 L402.186616,279.053173 L402.626224,278.778731 L403.45049,276.308748 L402.021763,275.759863 L401.85691,275.430532 L402.736126,275.101201 L405.208923,275.650086 L405.318825,276.528302 L403.560392,279.54717 L402.40642,280.864494 L404.384657,282.895369 L405.813384,284.596913 L407.406964,287.506003 L409.000544,289.646655 L410.154516,292.391081 L411.143634,292.555746 L412.022851,291.403087 L413.01197,292.006861 L414.440696,294.202401 L414.770403,296.178388 L416.473885,298.593482 L416.913493,297.879931 L419.056583,298.044597 L421.03482,299.307033 L422.903156,302.161235 L423.342764,304.027444 L423.507617,305.619211 L424.112078,306.168096 L424.826442,306.442539 L426.145267,305.893654 L426.969532,305.015437 L429.112622,304.90566 L430.816104,304.082333 L432.299782,302.325901 L432.025027,301.283019 L431.860174,299.965695 L432.18988,298.922813 L432.025027,297.879931 L433.343852,297.166381 L433.508705,295.300172 L433.178999,294.312178 L432.904244,287.725557 L432.18988,283.554031 L429.717084,279.053173 L427.738847,275.86964 L426.31012,272.960549 L424.71654,271.368782 L423.12296,267.307033 L423.507617,266.538593 L424.112078,265.825043 L423.232862,264.233276 L421.03482,262.202401 L418.397171,259.183533 L416.363983,255.725557 L413.451578,250.566038 L411.41839,245.241852 L410.154516,241.234991 L407.297062,241.070326 Z M417.023395,313.907376 L418.34222,313.578045 L419.056583,313.468268 L419.880849,312.205832 L421.144723,311.327616 L421.859086,311.602058 L422.793254,311.766724 L423.013058,312.370497 L421.089771,313.02916 L418.781828,313.852487 L417.517954,314.511149 L417.023395,313.907376 Z M424.441785,311.16295 L425.101197,311.766724 L426.584875,310.614065 L429.49728,308.308748 L431.530468,306.168096 L432.904244,302.545455 L433.453754,301.61235 L433.563656,299.746141 L433.178999,300.020583 L432.629489,301.557461 L431.805223,304.082333 L430.04679,306.991424 L427.628945,309.296741 L425.760609,310.339623 L424.441785,311.16295 Z" id="FL"></path>
                    <polygon id="GA" points="407.297062 240.521441 404.219804 240.137221 403.45049 241.015437 404.329706 243.595197 404.164853 245.735849 402.95593 245.406518 402.846028 243.759863 399.988575 243.759863 397.07617 244.144082 379.326986 245.186964 375.095756 245.022298 374.326442 244.363636 372.952666 242.003431 372.513058 240.19211 371.633841 239.698113 371.359086 239.423671 371.853645 238.216123 371.633841 235.197256 370.754625 232.727273 371.194233 230.037736 372.1284 227.403087 372.018498 226.030875 370.974429 225.646655 370.754625 223.890223 369.215996 221.969125 368.171926 218.566038 367.347661 214.723842 366.413493 212.089194 364.325354 203.307033 362.402067 198.915952 361.962459 196.006861 362.01741 194.744425 363.830794 194.57976 371.304135 193.701544 381.525027 192.603774 384.986942 192 385.261697 192.768439 384.052775 193.262436 383.558215 194.469983 383.77802 195.567753 384.547334 196.445969 386.910229 197.927959 388.668662 197.87307 390.427095 200.45283 390.756801 201.331046 392.020675 202.867925 392.29543 203.801029 394.878128 204.789022 396.526659 205.996569 397.790533 207.643225 399.054407 208.356775 400.153428 209.344768 400.922742 210.826758 402.076714 211.86964 404.329706 212.857633 405.813384 216.150943 406.747552 218.950257 408.286181 219.334477 409.440152 220.377358 410.539173 223.506003 412.132753 224.38422 413.066921 223.945111 413.286725 224.603774 411.473341 228.006861 411.748096 229.433962 410.92383 231.73928 409.659956 237.22813 410.099565 240.686106"></polygon>
                    <polygon id="IA" points="301.021763 97.4819897 302.175734 98.6346484 302.340588 99.0188679 301.241567 100.665523 301.40642 102.861063 302.835147 105.111492 304.538629 105.989708 305.857454 106.154374 306.352013 107.142367 306.461915 108.459691 307.835691 109.008576 308.33025 109.61235 308.605005 110.490566 310.693145 112.301887 311.022851 113.344768 310.638194 114.991424 309.704026 117.022298 309.37432 118.339623 308.220348 119.217839 307.341132 119.492281 304.208923 120.315609 303.329706 122.950257 303.769314 123.93825 304.703482 124.761578 304.59358 126.682676 303.54951 127.451115 303.164853 128.439108 303.164853 129.756432 302.395539 129.975986 301.461371 130.744425 301.186616 131.67753 301.40642 132.610635 300.692057 133.15952 299.428183 131.67753 298.658868 130.140652 294.097933 130.57976 288.602829 130.909091 261.566921 131.567753 260.687704 129.207547 260.4679 125.530017 259.698585 123.2247 259.313928 120.370497 258.105005 118.339623 257.555495 115.814751 256.071817 111.533448 255.467356 108.459691 254.698041 107.41681 253.983678 105.825043 254.917845 103.73928 255.577258 100.391081 254.09358 99.1835334 253.928727 97.8662093 254.313384 96.5488851 255.302503 96.3842196 288.877584 96.0548885 300.527203 95.670669"></polygon>
                    <polygon id="ID" points="91.3835691 11.8723842 88.7459195 21.4284734 86.273123 32.8782161 84.4047878 41.7811321 84.1849837 47.0888508 84.8443961 49.5259005 86.7676823 50.9859348 86.6577802 53.1320755 84.5146899 55.5471698 82.0418934 59.1698113 81.5473341 60.761578 80.8879217 61.3653516 79.898803 61.8044597 77.5359086 64.7135506 77.3161045 66.4150943 77.0963003 67.0188679 77.4260065 67.567753 78.8547334 67.5128645 79.4591948 68.7753002 78.14037 71.9588336 77.4809576 74.2641509 72.6452666 93.6397942 84.0201306 96.109777 105.725789 100.445969 124.848749 103.794168 127.541349 87.7667238 129.629489 74.5385935 128.145811 73.2212693 127.926007 71.7941681 127.486398 71.1903945 126.332427 71.7392796 125.947769 73.1663808 124.189336 73.4408233 122.046246 72.5626072 119.958107 72.6174957 118.584331 73.0017153 116.715996 72.1783877 115.397171 72.2881647 114.078346 73.3859348 112.979325 72.7821612 112.594668 70.5866209 112.979325 68.9948542 111.60555 67.4030875 109.792165 65.9759863 108.308487 58.7855918 108.253536 56.2058319 108.088683 56.1509434 107.978781 56.3704974 105.176279 58.2915952 104.242111 58.1818182 102.648531 56.3156089 102.538629 54.6140652 106.385201 45.2116638 106.165397 44.1468268 104.297062 43.5156089 103.967356 42.8679245 102.538629 40.9687822 100.010881 35.3536878 98.2524483 34.5138937 97.1534276 31.7969125 97.8677911 29.2555746 96.109358 25.0950257 98.5272035 13.2830189"></polygon>
                    <polygon id="IL" points="335.036453 114.332762 334.596844 112.90566 333.882481 110.874786 333.003264 109.886792 332.178999 108.459691 331.959195 105.440823 323.22198 106.428816 313.660501 106.977702 306.901523 106.977702 307.011425 108.13036 308.220348 108.624357 308.82481 109.392796 309.044614 110.161235 311.187704 112.027444 311.572361 113.344768 311.187704 115.156089 310.253536 117.186964 309.813928 118.668954 308.495103 119.711835 307.451034 120.041166 304.59358 120.754717 303.879217 123.005146 304.208923 123.608919 305.252992 124.596913 305.14309 126.957118 303.989119 127.835334 303.714363 128.548885 303.714363 130.085763 302.725245 130.415094 301.95593 131.073756 301.736126 131.732419 301.95593 132.830189 301.076714 133.543739 300.582155 135.080617 300.747008 137.221269 302.010881 141.063465 305.857454 145.234991 308.989663 147.265866 308.989663 149.680961 309.37432 150.339623 313.001088 150.668954 314.484766 151.437393 314.100109 153.358491 312.891186 156.761578 312.451578 158.408233 313.550598 160.439108 317.067465 163.348199 319.705114 163.787307 320.914037 166.586621 322.013058 168.45283 321.518498 169.989708 322.342764 172.075472 323.276931 173.22813 324.156148 173.063465 324.705658 171.855918 326.024483 170.922813 327.563112 170.373928 330.915125 171.746141 331.18988 171.636364 331.18988 171.03259 330.530468 169.5506 330.750272 168.013722 332.069097 167.135506 333.937432 166.476844 333.662677 165.763293 333.223069 164.665523 333.882481 163.951973 334.431991 162.469983 334.431991 160.274443 334.651795 157.584906 336.025571 155.93825 337.01469 153.852487 338.388466 151.656947 338.113711 148.747856 337.124592 146.991424 336.959739 145.180103 337.399347 142.271012 337.01469 138.319039 336.410229 129.646655 335.640914 121.248714 335.146355 114.826758"></polygon>
                    <polygon id="IN" points="337.344396 115.320755 338.168662 115.86964 338.773123 115.704974 339.927095 114.662093 341.300871 113.674099 349.158868 113.070326 359.269859 112.082333 360.149075 120.590051 362.841676 143.972556 362.51197 145.564322 363.226333 146.442539 363.336235 147.156089 362.072361 148.034305 360.094124 148.96741 358.335691 149.186964 358.060936 151.821612 355.478237 153.797599 353.884657 155.993139 353.994559 157.310463 353.719804 158.078902 351.796518 158.078902 351.027203 157.145798 348.16975 158.792453 348.279652 160.493997 347.785092 160.603774 347.510337 160.109777 346.191513 159.176672 344.213275 160 343.443961 161.591767 342.784548 161.262436 341.905332 160.274443 339.487486 160.548885 336.355277 161.09777 334.981502 161.811321 334.981502 160.38422 335.201306 157.80446 336.46518 156.212693 337.454298 154.072041 338.937976 151.766724 338.663221 148.58319 337.674102 146.881647 337.509249 145.125214 337.948857 142.216123 337.5642 138.319039 337.069641 131.403087 335.695865 114.881647"></polygon>
                    <polygon id="KS" points="262.06148 139.142367 237.992927 138.813036 215.682807 138.154374 203.758433 137.660377 201.395539 173.22813 214.74864 173.777015 239.311752 174.929674 264.754081 175.259005 271.677911 175.09434 272.062568 155.883362 271.403156 149.790738 270.02938 148.692967 268.710555 147.046312 267.446681 145.070326 267.776387 143.423671 268.710555 142.655232 268.710555 141.502573 268.270947 141.118353 266.84222 141.008576 264.918934 139.142367"></polygon>
                    <polygon id="KY" points="328.717084 178.826758 335.640914 178.442539 335.695865 176.19211 338.05876 176.19211 354.763874 174.435678 379.54679 172.075472 382.624048 170.099485 384.767138 168.946827 384.822089 167.903945 388.119151 163.622642 390.372144 161.646655 391.526115 160.329331 389.712731 159.231561 388.338955 157.749571 386.690424 155.663808 386.415669 154.456261 384.986942 153.687822 384.492383 152.64494 384.382481 149.296741 382.953754 148.198971 381.909684 147.595197 381.634929 146.332762 380.920566 146.442539 379.821545 147.101201 378.447769 148.58319 377.4037 147.650086 376.029924 147.375643 374.711099 148.144082 373.447225 148.144082 372.458107 147.046312 369.380849 146.991424 368.39173 144.521441 366.79815 143.698113 365.644178 144.137221 363.336235 144.246998 363.06148 145.399657 363.720892 146.222985 363.885745 147.375643 362.347116 148.473413 360.258977 149.461407 358.83025 149.680961 358.555495 152.150943 355.862894 154.12693 354.434168 156.157804 354.54407 157.365352 354.04951 158.627787 351.576714 158.572899 350.86235 157.859348 348.71926 159.066895 348.829162 160.878216 347.510337 161.207547 347.070729 160.439108 346.136561 159.780446 344.652884 160.38422 343.663765 162.305317 342.454842 161.756432 341.685528 160.878216 339.652339 161.09777 336.575082 161.646655 335.036453 162.360206 334.37704 164.226415 333.82753 164.7753 334.651795 166.806175 332.343852 167.574614 331.299782 168.343053 331.079978 169.5506 331.739391 170.867925 331.739391 172.075472 330.860174 172.295026 327.508161 170.922813 326.244287 171.41681 325.145267 172.185249 324.705658 173.173242 325.639826 174.490566 325.145267 175.478559 325.090316 177.28988 323.771491 178.003431 322.617519 178.936535"></polygon>
                    <polygon id="LA" points="284.591404 263.409949 289.042437 263.245283 294.702394 265.221269 298.274211 265.825043 300.307399 265.001715 302.065832 265.605489 303.824266 266.154374 304.263874 265.001715 302.505441 264.397942 301.076714 264.672384 299.593036 263.794168 300.032644 262.97084 301.736126 262.421955 302.725245 263.245283 303.714363 262.696398 305.472797 263.025729 306.297062 264.343053 306.461915 265.605489 308.934712 265.770154 309.92383 266.758148 309.484222 267.636364 308.769859 268.075472 309.649075 268.953688 314.264962 270.929674 316.243199 270.216123 316.792709 268.898799 318.221436 268.569468 319.210555 267.746141 319.924918 268.295026 320.364527 269.886792 319.100653 270.325901 319.430359 270.655232 321.298694 269.941681 322.562568 268.075472 323.002176 267.801029 321.848205 267.636364 322.287813 266.758148 322.177911 265.93482 323.331882 265.660377 323.936344 264.946827 324.26605 265.385935 324.595756 267.087479 326.9037 267.41681 329.101741 268.459691 329.651251 269.283019 331.244831 269.283019 331.849293 269.831904 333.113166 268.13036 333.113166 267.307033 332.398803 267.307033 330.530468 265.825043 327.343308 265.385935 325.584875 264.123499 326.189336 262.641509 327.45321 262.806175 327.563112 262.476844 326.573993 261.927959 326.573993 261.653516 328.332427 261.653516 329.321545 259.951973 328.607182 258.909091 328.442329 257.427101 327.618063 257.536878 326.573993 258.689537 326.244287 260.116638 324.540805 259.787307 323.991295 258.799314 324.980413 257.756432 326.024483 256.823328 324.81556 253.255575 322.947225 251.389365 323.496736 247.382504 323.386834 247.108062 322.67247 247.217839 304.483678 247.986278 304.04407 246.668954 304.483678 242.003431 309.209467 233.879931 308.714908 232.45283 309.484222 232.233276 309.704026 231.135506 308.495103 230.037736 308.550054 228.994854 307.451034 226.524871 307.23123 223.725557 307.286181 223.341338 292.779108 223.780446 278.931447 223.835334 279.151251 229.15952 279.535909 234.373928 279.810664 236.404803 281.239391 238.874786 281.73395 241.28988 284.096844 244.58319 284.261697 246.284734 284.591404 246.723842 284.206746 251.279588 282.668118 253.80446 283.32753 255.121784 283.052775 256.548885 282.613166 260.555746 281.898803 262.202401 282.008705 264.233276"></polygon>
                    <path d="M482.744831,91.3893654 L482.470076,90.1269297 L482.909684,89.3036021 L484.503264,88.4802744 L484.942873,90.1818182 L484.668118,91.1698113 L483.349293,91.9931389 L483.349293,92.542024 L484.393362,91.7186964 L486.536453,89.2487136 L488.679543,88.2058319 L490.987486,87.3825043 L490.822633,86.0651801 L490.273123,84.4734134 L489.229053,83.1560892 L488.239935,82.7169811 L487.085963,82.8267581 L486.811208,83.1012007 L487.360718,83.8147513 L488.184984,83.3756432 L489.338955,84.2538593 L489.778564,85.7358491 L488.789445,86.7238422 L487.525571,87.2727273 L485.547334,86.9982847 L483.404244,83.7049743 L482.14037,82.2778731 L481.151251,82.2778731 L480.54679,82.7169811 L479.50272,81.2898799 L479.667573,80.4665523 L480.986398,77.6123499 L479.392818,75.1972556 L477.35963,76.1852487 L476.370511,77.7770154 L466.314472,80.3567753 L458.73123,81.728988 L458.401523,87.5471698 L458.786181,90.2367067 L470.875408,87.6020583 L477.029924,86.0651801 L478.128945,86.9433962 L479.99728,89.3036021 L481.59086,91.8833619 L482.744831,91.3893654 Z M489.613711,92.1578045 L490.822633,91.7735849 L491.097388,90.8404803 L491.646899,90.8953688 L492.196409,92.1578045 L491.482046,92.432247 L489.338955,92.4871355 L489.613711,92.1578045 Z M484.448313,92.5969125 L485.712187,91.1698113 L486.591404,91.1698113 L487.580522,91.9931389 L486.261697,92.542024 L485.052775,93.0909091 L484.448313,92.5969125 Z" id="MA"></path>
                    <path d="M453.785637,141.667238 L454.719804,139.581475 L454.994559,136.946827 L451.532644,137.5506 L448.345484,137.715266 L446.257345,128.493997 L444.993471,125.475129 L444.169206,122.950257 L431.970076,125.310463 L411.308487,129.48199 L412.407508,135.190395 L415.045158,132.500858 L416.418934,132.116638 L417.188248,131.29331 L418.177367,129.811321 L419.056583,130.19554 L420.48531,130.085763 L421.914037,128.933105 L423.013058,128.109777 L424.167029,127.780446 L424.991295,128.38422 L426.474973,129.152659 L427.519042,130.140652 L428.233406,130.909091 L430.871055,131.787307 L430.541349,133.379074 L433.728509,134.531732 L434.882481,133.104631 L436.915669,134.476844 L435.761697,136.288165 L435.37704,138.099485 L434.387922,139.526587 L434.387922,140.679245 L434.552775,141.118353 L435.651795,141.831904 L437.520131,142.435678 L439.883025,142.380789 L441.586507,142.929674 L442.740479,143.09434 L443.289989,141.941681 L442.465724,140.789022 L442.465724,139.801029 L441.146899,138.64837 L439.992927,135.629503 L440.707291,132.720412 L440.597388,131.567753 L439.883025,130.854202 C439.883025,130.854202 440.707291,129.975986 440.707291,129.591767 C440.707291,129.262436 440.982046,128.439108 440.982046,128.439108 L442.026115,127.725557 L443.070185,126.847341 L443.34494,127.396226 L442.520675,128.274443 L441.806311,130.305317 L441.971164,130.909091 L442.960283,131.073756 L443.235038,134.092624 L442.081066,134.641509 L442.245919,136.617496 L442.520675,136.507719 L443.125136,135.464837 L444.004353,136.45283 L443.125136,137.166381 L442.960283,139.03259 L444.38901,140.898799 L446.5321,141.173242 L447.411317,140.734134 L449.16975,143.039451 L449.71926,143.259005 L453.785637,141.667238 Z M445.817737,141.777015 L446.422198,143.149228 L446.5321,144.137221 L447.136561,145.180103 C447.136561,145.180103 447.631121,144.686106 447.631121,144.521441 C447.631121,144.356775 447.246464,142.819897 447.246464,142.819897 L446.861806,141.557461 L445.817737,141.777015 Z" id="MD"></path>
                    <path d="M470.820457,47.1492281 L471.644723,47.3687822 L471.644723,45.941681 L472.084331,42.922813 L473.513058,40.3430532 L474.337323,38.1475129 L473.293254,36.8301887 L473.293254,33.5368782 L473.732862,32.9879931 L474.17247,31.5060034 L474.062568,30.6826758 L473.952666,28.0480274 L474.941785,25.4133791 L476.535365,20.5283019 L477.689336,18.2229846 L478.4037,18.2229846 L479.118063,18.3327616 L479.118063,18.9365352 L479.832427,20.1989708 L481.316104,20.5283019 L481.755713,20.0891938 L481.755713,19.5403087 L483.953754,17.948542 L484.942873,16.9605489 L485.767138,17.0703259 L489.0642,18.3876501 L490.10827,18.9365352 L495.108814,35.348199 L498.405876,35.348199 L498.845484,36.3910806 L498.955386,39.025729 L500.548966,40.2881647 L500.988575,40.2881647 L501.098477,40.0137221 L500.823721,39.4099485 L502.36235,39.135506 L503.40642,40.2881647 L504.670294,42.3190395 L504.670294,43.3619211 L503.516322,45.941681 L502.472252,46.271012 L500.603917,47.9725557 L497.966268,50.9914237 L497.251904,50.9914237 C496.922198,50.9914237 496.702394,49.838765 496.702394,49.838765 L495.713275,49.948542 L495.163765,50.7718696 L493.84494,51.5951973 L493.29543,52.4185249 L494.174646,53.2418525 L493.899891,53.5711835 L493.625136,55.0531732 L492.581066,54.9433962 L492.581066,54.0651801 L492.416213,53.3516295 L491.591948,53.516295 L490.602829,51.7598628 L489.448857,52.4734134 L490.163221,53.296741 L490.328074,53.9005146 L489.888466,54.6140652 L490.053319,56.3156089 L490.163221,57.193825 L489.284004,58.6209262 L487.690424,58.8953688 L487.525571,60.4871355 L484.613166,62.1886792 L483.898803,62.4631218 L483.019587,61.6397942 L481.316104,63.6157804 L481.865615,65.3722127 L481.041349,66.0857633 L480.931447,68.5008576 L480.326986,71.9588336 L479.118063,71.464837 L478.843308,69.7632933 L476.645267,69.1595197 L476.535365,67.787307 L470.106094,47.2425386 L470.820457,47.1492281 Z M490.877584,55.7118353 L491.70185,54.8885077 L492.471164,55.4922813 L492.800871,56.8096055 L491.866703,57.3036021 L490.877584,55.7118353 Z M494.559304,52.4734134 L495.548422,53.516295 C495.548422,53.516295 496.262786,53.5711835 496.262786,53.406518 C496.262786,53.2418525 496.372688,52.3087479 496.372688,52.3087479 L496.867247,51.8696398 L496.427639,50.8816467 L495.328618,51.2658662 L494.559304,52.4734134 Z" id="ME"></path>
                    <path d="M349.213819,112.521441 L359.709467,111.478559 L359.819369,112.082333 L365.259521,111.259005 L371.853645,110.325901 L371.908596,109.996569 L372.018498,109.173242 L373.17247,107.142367 L374.271491,106.209262 L374.161589,103.409949 L375.040805,102.531732 L375.645267,102.367067 L375.755169,100.391081 L376.579434,98.7444254 L377.183896,99.0737564 L377.293798,99.4030875 L377.733406,99.5128645 L378.777476,98.9639794 L378.557671,93.9691252 L376.799238,89.4682676 L375.535365,84.4734134 L374.21654,82.7169811 L372.787813,81.728988 L371.908596,82.3327616 L369.765506,83.3207547 L368.721436,86.0651801 L367.237758,88.0960549 L366.633297,88.4253859 L365.809032,88.0960549 C365.809032,88.0960549 364.380305,87.2727273 364.490207,86.9433962 C364.600109,86.6140652 364.764962,84.1989708 364.764962,84.1989708 L366.633297,83.4854202 L367.072905,81.619211 L367.402612,80.1921098 L368.721436,79.3138937 L368.556583,73.8250429 L367.677367,72.5626072 L366.963003,72.1234991 L366.523395,70.9708405 L366.963003,70.5317324 L367.84222,70.6963979 L367.952122,69.8181818 L366.523395,68.6106346 L365.809032,67.1835334 L364.380305,67.1835334 L361.907508,66.3602058 L358.885201,64.4939966 L357.401523,64.4939966 L357.071817,64.8233276 L356.522307,64.5488851 L354.818825,63.2864494 L353.225245,64.2744425 L351.631665,65.5368782 L351.796518,67.5128645 L352.346028,67.67753 L353.5,67.9519726 L353.774755,68.3910806 L352.346028,68.8301887 L350.917301,68.9948542 L350.093036,69.9828473 L349.928183,71.135506 L350.093036,72.0137221 L350.257889,75.0325901 L348.279652,76.1852487 L347.949946,76.0754717 L347.949946,73.7701544 L348.664309,72.4528302 L348.994015,71.135506 L348.554407,70.6963979 L347.510337,71.135506 L346.960827,73.4408233 L345.477149,74.0445969 L344.48803,75.0874786 L344.378128,75.6363636 L344.707835,76.0754717 L344.378128,77.5025729 L343.114255,77.7770154 L343.114255,78.380789 L343.553863,79.6981132 L342.949402,83.0463122 L342.070185,85.2418525 L342.399891,87.8216123 L342.674646,88.4253859 L342.235038,89.7427101 L342.070185,90.1818182 L341.905332,91.6638079 L343.883569,94.9571184 L345.477149,98.5248714 L346.301415,101.15952 L345.861806,103.73928 L345.312296,107.03259 L343.993471,109.886792 L343.828618,111.368782 L342.070185,113.070326 L349.213819,112.521441 Z M330.915125,72.7821612 L330.200762,72.1783877 L329.211643,66.4699828 L327.178455,65.7564322 L326.244287,64.4939966 L319.320457,62.9571184 L317.781828,62.3533448 L313.330794,61.1457976 L309.044614,60.5969125 L306.901523,57.6878216 L307.286181,57.4133791 L308.769859,56.974271 L310.748096,55.7118353 L310.748096,55.1629503 L311.077802,54.8336192 L314.374864,54.2847341 L315.693689,53.2418525 L318.111534,52.0891938 L318.221436,51.3756432 L319.265506,49.7838765 L320.254625,49.3447684 L320.968988,48.3567753 L322.232862,47.0943396 L324.650707,45.7770154 L327.233406,45.5025729 L327.837867,46.1063465 L327.673014,46.6552316 L325.639826,47.2041166 L324.81556,48.9056604 L323.551687,49.3447684 L323.276931,50.6620926 L321.958107,52.4185249 L321.793254,53.8456261 L322.232862,54.1200686 L322.782372,53.516295 L324.760609,51.9245283 L325.474973,52.6380789 L326.738847,52.6380789 L328.49728,53.186964 L329.321545,53.7907376 L330.145811,55.4922813 L331.629489,56.974271 L333.772579,56.864494 L334.596844,56.3156089 L335.476061,57.0291595 L336.355277,57.3036021 L337.069641,56.864494 L337.674102,56.864494 L338.553319,56.3156089 L340.75136,54.3396226 L342.619695,53.7358491 L346.246464,53.5711835 L348.71926,52.5283019 L350.147987,51.8147513 L350.972252,51.9245283 L350.972252,55.0531732 L351.247008,55.2178388 L352.840588,55.6569468 L353.884657,55.3825043 L357.23667,54.5042882 L357.841132,53.9005146 L358.665397,54.1749571 L358.665397,58.0171527 L360.42383,59.7186964 L361.138194,60.0480274 L361.852557,60.5969125 L361.138194,60.761578 L360.698585,60.5969125 L358.665397,60.32247 L357.511425,60.651801 L356.247552,60.542024 L354.489119,61.3653516 L353.5,61.3653516 L350.31284,60.651801 L347.455386,60.761578 L346.411317,62.1886792 L342.564744,62.5180103 L341.245919,62.9571184 L340.641458,64.6586621 L339.927095,65.2624357 L339.652339,65.1526587 L338.828074,64.2744425 L336.355277,65.5917667 L336.025571,65.5917667 L335.42111,64.7135506 L334.981502,64.8233276 L333.937432,67.238422 L333.387922,69.4339623 L331.629489,73.2212693 L330.915125,72.7821612 Z M314.649619,41.7701544 L315.638738,40.6174957 L316.847661,40.1783877 L319.815016,38.0377358 L321.07889,37.7084048 L321.353645,37.9828473 L318.551143,40.7821612 L316.737758,41.8250429 L315.583787,42.3190395 L314.649619,41.7701544 Z M362.01741,59.3893654 L362.347116,60.761578 L364.10555,60.8713551 L364.819913,60.212693 C364.819913,60.212693 364.764962,59.3893654 364.600109,59.3344768 C364.435256,59.2246998 363.720892,58.2915952 363.720892,58.2915952 L362.51197,58.4013722 L361.632753,58.5111492 L361.4679,59.1149228 L362.01741,59.3893654 Z" id="MI"></path>
                    <polygon id="MN" points="250.35691 33.3667238 250.027203 35.5128645 250.027203 41.1499142 250.90642 43.9108062 251.95049 45.7331046 252.225245 51.1835334 253.214363 58.5660377 254.203482 62.5728988 254.423286 66.0857633 254.423286 68.9948542 253.54407 69.9828473 252.554951 70.6963979 252.554951 71.5197256 253.04951 72.4528302 255.302503 74.373928 255.68716 76.1303602 255.68716 95.8353345 288.822633 95.5060034 300.472252 95.1217839 300.197497 91.8284734 299.208379 90.6758148 295.251904 88.1509434 293.273667 85.2418525 291.405332 84.7478559 290.306311 83.2109777 288.547878 83.2109777 286.624592 81.1252144 286.349837 77.2830189 286.404788 75.1423671 287.229053 73.4957118 286.844396 72.0137221 285.305767 70.3121784 286.51469 66.9639794 289.482046 64.7684391 290.141458 64 290.031556 59.6089194 290.141458 57.9622642 291.570185 56.3156089 293.658324 54.7238422 294.372688 54.6140652 296.845484 51.8696398 297.834603 51.4305317 299.098477 49.2898799 300.417301 47.3138937 302.120783 45.8867925 304.758433 44.7890223 309.813928 42.5385935 311.957018 41.5506003 312.286725 40.2881647 309.868879 40.5077187 309.484222 41.1114923 309.154516 41.1114923 308.165397 39.4099485 303.274755 39.5746141 302.725245 40.0137221 302.175734 40.0137221 301.900979 39.3001715 301.461371 38.3121784 300.032644 38.5866209 298.274211 40.3430532 297.394995 40.7821612 295.691513 40.7821612 294.262786 40.2332762 294.262786 39.0806175 293.548422 38.9708405 293.273667 39.245283 291.84494 38.5317324 291.570185 36.9399657 290.745919 37.2144082 290.471164 37.7632933 289.152339 37.4888508 286.239935 36.1715266 284.096844 34.7444254 282.503264 34.7444254 281.788901 34.1955403 280.525027 34.5248714 279.920566 35.1286449 279.755713 35.8421955 277.118063 35.8421955 277.118063 34.6895369 273.656148 34.5248714 273.491295 33.7015437 270.853645 33.7015437 269.974429 32.8233276 269.150163 29.4751286 268.710555 26.4562607 267.666485 26.0171527 266.402612 25.7427101 266.072905 25.8524871 265.908052 30.3533448 249.367791 30.3368782"></polygon>
                    <polygon id="MO" points="320.968988 182.614065 321.243743 179.375643 323.551687 177.509434 324.595756 176.960549 324.595756 175.368782 324.980413 174.490566 324.375952 173.61235 323.057127 173.777015 321.903156 172.404803 320.968988 169.93482 321.463547 168.507719 320.364527 166.751286 319.375408 164.226415 316.847661 163.842196 313.11099 160.768439 311.902067 158.463122 312.341676 156.651801 313.550598 153.358491 313.880305 151.711835 312.836235 151.16295 309.044614 150.833619 308.440152 149.790738 308.440152 147.540309 305.527748 145.619211 301.571273 141.337907 300.307399 137.331046 300.032644 135.025729 300.417301 133.708405 298.988575 132.006861 298.329162 130.689537 294.097933 131.128645 288.602829 131.457976 261.786725 132.116638 262.501088 133.543739 262.446137 134.751286 263.710011 136.727273 265.358542 138.867925 267.062024 140.51458 268.490751 140.624357 269.260065 141.22813 269.260065 142.819897 268.270947 143.698113 267.996192 144.960549 269.150163 146.716981 270.468988 148.363636 271.897715 149.516295 272.612078 155.883362 272.17247 177.838765 272.447225 180.96741 285.47062 180.857633 298.274211 180.473413 316.133297 179.759863 317.34222 181.790738 316.902612 183.492281 315.199129 184.864494 314.924374 185.852487 317.781828 186.12693 320.03482 185.523156"></polygon>
                    <polygon id="MS" points="327.123504 256.054889 328.552231 253.749571 329.541349 254.188679 333.27802 253.145798 334.431991 253.310463 335.256257 253.749571 338.113711 253.749571 338.333515 252.871355 337.399347 244.747856 335.860718 234.319039 336.410229 209.564322 336.300326 200.397942 336.410229 196.939966 333.772579 197.104631 323.002176 197.982847 315.858542 198.202401 315.74864 199.958834 314.210011 200.672384 312.781284 203.471698 313.056039 204.349914 313.11099 205.667238 311.51741 206.271012 309.594124 209.070326 310.033732 210.332762 308.385201 211.704974 307.835691 214.833619 307.505985 215.876501 308.385201 217.248714 307.560936 218.017153 308.385201 219.554031 308.550054 221.859348 307.890642 223.231561 307.78074 223.725557 308.000544 226.469983 309.099565 228.939966 309.044614 229.87307 310.308487 230.97084 309.92383 232.672384 309.429271 232.83705 309.758977 233.879931 305.033188 242.113208 304.59358 246.614065 304.868335 247.437393 318.166485 247.053173 322.67247 246.668954 323.71654 246.504288 324.046246 247.272727 323.496736 251.169811 325.31012 252.981132 326.519042 256.493997"></polygon>
                    <polygon id="MT" points="193.48259 35.5512864 190.570185 66.9090909 189.855822 75.2521441 157.379761 71.6295026 130.453754 67.7324185 129.68444 73.8799314 128.64037 72.9468268 128.420566 71.5746141 127.706202 70.5317324 125.892818 71.35506 125.508161 72.7272727 124.244287 72.8919383 122.156148 72.0137221 119.903156 72.0686106 118.584331 72.4528302 116.825898 71.6295026 115.177367 71.7392796 114.023395 72.7821612 113.528836 72.4528302 113.144178 70.5866209 113.528836 68.8301887 112.045158 67.0737564 110.231774 65.7015437 108.857998 58.7855918 108.803047 55.8765009 107.92383 55.4373928 107.594124 55.9862779 105.121328 57.7427101 104.461915 57.6878216 103.198041 56.1509434 103.088139 54.6140652 106.934712 45.2006861 106.605005 43.735163 104.681719 43.1204117 104.461915 42.6209262 102.978237 40.6998285 100.45049 34.9859348 98.6920566 34.1186964 97.702938 31.780446 98.4173014 29.2391081 96.6588683 25.084048 99.0767138 13.3982847 117.045702 17.1801029 127.156692 19.0463122 144.905876 21.9554031 161.006529 24.1509434 177.052231 26.0720412 193.977149 27.7571184"></polygon>
                    <path d="M427.354189,193.042882 L420.375408,188.816467 L418.671926,188.377358 L409.550054,189.530017 L408.670838,187.883362 L407.132209,186.675815 L397.955386,186.950257 L393.88901,187.444254 L388.833515,189.914237 L385.096844,191.396226 L381.525027,192.054889 L374.161589,192.823328 L374.21654,190.572899 L375.150707,189.859348 L376.634385,189.475129 L377.019042,187.389365 L379.162133,186.017153 L381.305223,185.193825 L383.77802,183.16295 L386.195865,181.900515 L386.580522,180.144082 L388.833515,178.058319 L389.218172,178.607204 L390.591948,178.716981 L391.910773,176.740995 L392.84494,176.521441 L394.273667,176.686106 L395.262786,174.490566 L396.636561,173.173242 L396.911317,172.185249 L396.966268,170.264151 L399.384113,170.319039 L420.540261,167.245283 L452.137106,160.493997 L453.236126,163.128645 L455.214363,166.696398 L456.533188,168.013722 L456.862894,169.276158 L455.54407,169.385935 L455.983678,169.715266 L455.818825,172.020583 L454.390098,172.734134 L454.060392,173.886792 L453.346028,175.478559 L451.31284,176.356775 L449.994015,176.19211 L449.16975,176.082333 L448.290533,175.368782 L448.455386,176.082333 L448.455386,176.631218 L449.499456,176.631218 L449.939064,177.344768 L448.894995,180.802744 L451.202938,180.802744 L451.532644,181.680961 L452.796518,180.418525 L453.510881,180.144082 L452.466812,182.120069 L450.76333,184.754717 L450.048966,184.754717 L449.444505,184.480274 L447.960827,184.809605 L445.103373,186.12693 L441.531556,189.036021 L439.663221,191.61578 L438.619151,195.183533 L438.344396,196.500858 L435.761697,196.7753 L432.959195,197.598628 L427.354189,193.042882 Z M454.445049,178.662093 L455.873776,177.28988 L457.632209,175.862779 L458.456474,175.533448 L458.566376,174.435678 L458.23667,171.087479 L457.412405,169.825043 L457.082699,168.782161 L457.467356,168.672384 L458.951034,171.691252 L459.170838,174.106346 L459.060936,175.972556 L457.192601,176.795883 L455.653972,178.113208 L455.04951,178.77187 L454.445049,178.662093 Z" id="NC"></path>
                    <polygon id="ND" points="253.873776 66.0857633 253.653972 62.6826758 252.664853 58.6758148 251.675734 51.2054889 251.400979 45.8813036 250.35691 44.1358491 249.477693 41.2157804 249.477693 35.5018868 249.807399 33.3886792 248.818281 30.3478559 233.102285 30.0240137 222.881393 29.6946827 208.319369 28.9811321 194.471708 27.7955403 193.977149 35.7104631 191.39445 63.670669 222.606638 65.8113208 253.873776 66.7444254"></polygon>
                    <polygon id="NE" points="253.489119 108.843911 252.939608 107.581475 252.664853 106.703259 251.071273 105.825043 248.433624 105.001715 247.224701 104.343053 245.795974 104.397942 243.762786 104.617496 241.454842 105.276158 238.15778 103.025729 236.948857 101.927959 231.069097 102.25729 208.264418 100.939966 188.70185 99.7324185 186.338955 123.718696 204.527748 125.530017 203.758433 137.111492 215.682807 137.660377 237.992927 138.319039 262.06148 138.64837 264.534276 138.64837 263.325354 137.001715 261.896627 134.861063 261.951578 133.598628 261.182263 132.116638 260.138194 129.262436 259.91839 125.584906 259.149075 123.334477 258.87432 120.590051 257.610446 118.559177 257.060936 115.979417 255.522307 111.643225 254.972797 108.734134"></polygon>
                    <polygon id="NH" points="479.557671 74.2641509 480.162133 72.5077187 478.678455 71.8490566 478.4037 70.1475129 476.150707 69.5437393 475.985854 67.897084 469.556583 47.3248714 469.171926 47.3687822 468.84222 48.2469983 468.512514 47.9725557 467.963003 47.4236707 467.138738 48.4665523 467.028836 49.7234991 467.303591 54.3396226 468.347661 55.8765009 468.347661 58.2367067 466.20457 60.8713551 464.885745 61.3653516 464.885745 61.7495712 465.490207 62.7924528 465.490207 67.5128645 465.050598 72.5626072 464.940696 75.1423671 465.490207 75.9108062 465.380305 78.490566 465.10555 79.3138937 465.65506 79.9176672 468.457563 79.2590051 476.040805 77.3379074 476.974973 75.7461407 479.173014 74.703259"></polygon>
                    <polygon id="NJ" points="447.686072 122.017153 447.741023 121.193825 449.224701 120.480274 450.158868 118.943396 451.093036 117.626072 452.90642 115.86964 452.90642 115.210978 449.554407 112.960549 449.004897 111.478559 447.521219 111.313894 447.466268 110.819897 447.08161 109.61235 448.290533 109.008576 448.400435 107.41681 447.686072 106.703259 447.795974 106.044597 448.840044 104.343053 448.840044 102.641509 450.213819 100.939966 453.291077 102.312178 456.807943 103.35506 458.181719 104.013722 458.23667 105.001715 457.961915 106.483705 458.181719 108.953688 457.027748 109.996569 456.423286 110.545455 456.698041 110.819897 458.181719 110.655232 458.786181 110.216123 459.665397 112.082333 459.775299 117.241852 460.105005 117.845626 459.500544 120.864494 457.797062 124.432247 456.313384 126.627787 455.873776 129.262436 454.719804 130.57976 454.280196 130.57976 454.115343 129.09777 454.554951 128.548885 454.445049 127.725557 452.247008 127.396226 449.609358 126.133791 447.850925 124.542024 447.301415 123.444254"></polygon>
                    <polygon id="NM" points="143.5321 232.397942 134.355277 230.97084 133.695865 236.240137 125.013602 235.142367 128.310664 213.35163 132.157236 184.150943 134.575082 167.190395 153.258433 169.331046 173.81012 171.746141 191.39445 173.283019 191.229597 179.210978 190.460283 179.156089 186.393906 232.782161 170.787813 231.794168 149.851469 229.763293 150.236126 233.221269"></polygon>
                    <polygon id="NV" points="62.6991295 91.9931389 83.9651795 96.6586621 98.2524483 99.5128645 92.4276387 128.658662 89.4602829 145.015437 87.6468988 153.523156 86.4929271 159.61578 85.0642002 168.617496 84.1300326 170.319039 83.2508161 170.264151 82.5914037 168.83705 81.0527748 168.562607 80.3384113 167.958834 79.3492927 168.013722 78.8547334 168.45283 77.8656148 169.166381 77.7007617 173.173242 77.5359086 173.996569 77.2611534 180.802744 76.6566921 181.790738 67.4798694 167.794168 44.3454842 133.708405 37.5150707 123.279588 42.2133841 105.385935 46.6149619 88.2058319"></polygon>
                    <polygon id="NY" points="458.511425 106.483705 458.786181 105.001715 458.676279 103.684391 457.027748 102.861063 453.45593 101.763293 450.158868 100.336192 449.829162 100.116638 448.345484 99.9519726 447.246464 99.1286449 446.092492 95.890223 444.279108 95.6157804 442.960283 94.2984563 421.859086 98.7444254 404.494559 102.037736 404.219804 98.4699828 405.099021 97.8113208 405.813384 97.2075472 406.362894 96.329331 407.352013 95.7255575 408.396083 94.7375643 408.670838 93.8593482 409.82481 92.3773585 410.429271 91.8284734 410.319369 91.2795883 409.605005 89.5780446 408.615887 89.4682676 407.571817 86.1200686 409.165397 85.1320755 411.583243 84.3087479 413.781284 83.5951973 415.539717 83.3207547 419.001632 83.2109777 420.045702 83.9245283 420.924918 84.0343053 422.07889 83.3207547 423.507617 82.7169811 426.365071 82.4425386 427.519042 81.4545455 428.508161 79.6981132 429.387378 78.6552316 430.541349 78.6552316 431.585419 78.051458 431.695321 76.7890223 430.871055 75.6363636 430.706202 74.813036 431.310664 73.6603774 431.310664 72.8370497 430.321545 72.8370497 429.332427 72.3979417 428.892818 71.7941681 428.782916 70.3670669 431.970076 67.348199 432.299782 66.9090909 433.124048 65.3173242 434.717628 62.8473413 436.201306 60.8164666 437.355277 59.4991424 438.674102 58.5111492 440.377584 57.8524871 443.399891 57.1389365 445.158324 57.2487136 447.631121 56.4253859 451.697497 55.2178388 452.082155 57.9073756 453.400979 61.4751286 453.840588 64.219554 453.291077 66.5248714 454.719804 68.9948542 455.159412 70.0926244 454.664853 71.8490566 456.698041 72.7821612 458.181719 78.380789 458.181719 81.5643225 457.852013 87.5471698 458.291621 90.5111492 458.676279 92.4871355 459.500544 96.4939966 459.500544 100.939966 458.896083 102.202401 460.050054 103.684391 460.32481 104.178388 459.28074 105.166381 459.445593 105.879931 460.159956 105.715266 460.984222 105.001715 462.248096 103.574614 462.852557 103.245283 463.731774 103.574614 464.995647 103.684391 469.336779 101.543739 470.930359 100.06175 471.644723 99.238422 473.952666 100.116638 472.084331 102.092624 469.94124 103.684391 466.039717 106.593482 464.61099 107.142367 461.42383 108.185249 459.225789 108.789022 458.676279 108.569468"></polygon>
                    <polygon id="OH" points="359.819369 112.631218 360.753536 121.138937 363.391186 143.698113 365.534276 143.588336 366.79815 143.149228 368.776387 144.137221 369.710555 146.442539 372.677911 146.497427 373.667029 147.595197 374.601197 147.595197 375.920022 146.826758 377.623504 147.101201 378.447769 147.814751 379.436888 146.716981 380.700762 145.948542 382.019587 145.728988 382.349293 147.210978 383.228509 147.759863 384.657236 148.857633 385.096844 148.96741 386.195865 148.912521 386.855277 148.58319 386.855277 147.430532 387.789445 146.607204 387.844396 143.972556 388.448857 141.667238 389.492927 140.953688 390.042437 141.337907 390.591948 141.941681 390.976605 142.051458 391.196409 141.831904 390.70185 140.349914 390.70185 139.142367 391.306311 138.373928 392.680087 136.397942 393.39445 135.574614 394.603373 135.849057 395.757345 135.025729 397.405876 133.214408 398.614799 131.183533 398.724701 128.219554 398.999456 125.475129 398.999456 122.950257 398.340044 121.193825 398.999456 120.205832 399.713819 119.54717 399.384113 118.010292 397.021219 103.958834 393.614255 105.989708 391.471164 107.252144 389.602829 109.283019 387.404788 111.423671 385.646355 111.862779 384.052775 112.137221 381.030468 113.564322 379.876496 113.674099 378.008161 111.972556 375.150707 112.301887 373.72198 111.478559 372.513058 110.765009"></polygon>
                    <polygon id="OK" points="221.397715 180.528302 220.408596 193.866209 219.914037 203.746141 220.023939 204.624357 222.22198 206.600343 223.156148 207.09434 223.650707 207.09434 224.145267 205.941681 224.969532 206.984563 225.848749 207.039451 226.013602 206.929674 226.123504 206.325901 227.662133 207.09434 227.442329 209.015437 229.530468 209.28988 230.904244 209.838765 233.212187 210.168096 234.476061 211.046312 235.849837 210.113208 237.773123 210.497427 238.982046 212.198971 239.641458 212.253859 239.641458 213.516295 240.79543 213.900515 242.169206 212.747856 243.158324 213.077187 244.642002 213.132075 245.026659 214.394511 247.444505 215.382504 248.378672 215.217839 249.422742 212.912521 250.137106 212.912521 250.741567 214.06518 253.04951 214.504288 254.917845 215.217839 256.566376 215.656947 257.445593 215.272727 257.83025 213.790738 260.303047 213.790738 261.347116 214.284734 262.830794 213.241852 263.600109 213.241852 263.929815 214.010292 265.908052 214.010292 267.007073 213.022298 268.270947 213.35163 269.205114 214.559177 270.853645 215.492281 272.72198 215.986278 273.76605 216.64494 273.601197 196.006861 272.831882 190.024014 272.776931 185.303602 271.952666 181.680961 271.62296 177.948542 271.677911 175.588336 264.754081 175.753002 239.311752 175.478559 214.74864 174.325901 191.943961 173.337907 191.724157 179.210978"></polygon>
                    <polygon id="OR" points="32.1133841 83.9245283 47.631556 87.8765009 62.7540805 91.4442539 72.0957563 93.4751286 76.9314472 74.2092624 77.5908596 71.7941681 78.9096844 68.7753002 78.5250272 68.0617496 77.1512514 68.1166381 76.4368879 67.1286449 76.7665941 66.3053173 76.9863983 64.4939966 79.5690968 61.3653516 80.6131665 60.8713551 81.1077258 60.432247 81.492383 58.9502573 81.9319913 58.3464837 84.0750816 55.2178388 86.1082699 53.0222985 86.2181719 51.2329331 84.3498368 49.8662093 83.6904244 47.3687822 76.491839 45.2665523 68.0843308 43.3619211 59.9515778 43.5650086 59.3471164 42.8459691 56.5446137 43.8559177 54.0718172 43.5924528 52.7529924 42.7252144 52.0386289 43.0216123 49.4669206 42.8624357 48.3898803 42.07753 45.7302503 41.1060034 45.1257889 41.0675815 42.6804679 40.3704974 41.7133297 41.2048027 38.273395 41.0730703 35.3554951 38.9598628 35.4708923 33.8662093 34.3443961 31.9451115 32.0914037 31.6157804 31.7067465 30.2435678 30.3879217 29.9691252 27.2007617 31.1217839 25.9368879 34.6895369 24.1784548 40.1783877 22.4200218 43.7461407 19.6724701 51.4854202 16.1006529 58.9502573 11.6496192 65.8662093 10.6055495 67.457976 10.1659412 72.1783877 9.4515778 75.4716981 10.9407508 77.3927959"></polygon>
                    <polygon id="PA" points="399.823721 102.202401 400.538085 101.927959 403.670294 98.9090909 404.054951 102.696398 422.463547 99.1286449 442.740479 94.8473413 444.004353 96.109777 445.707835 96.329331 446.806855 99.4030875 448.12568 100.445969 449.664309 100.665523 449.71926 100.720412 448.290533 102.476844 448.290533 104.178388 447.246464 105.879931 447.136561 106.922813 447.850925 107.636364 447.741023 108.679245 446.422198 109.283019 446.971708 111.149228 447.08161 111.753002 448.620239 111.917667 449.114799 113.28988 452.35691 115.430532 452.35691 115.650086 450.653428 117.296741 449.829162 118.504288 448.894995 120.041166 447.411317 120.699828 446.642002 120.864494 445.48803 121.578045 444.608814 122.346484 432.299782 124.70669 411.033732 128.987993 404.824266 129.756432 402.681175 130.140652 399.878672 117.845626 397.515778 103.629503"></polygon>
                    <polygon id="RI" points="475.106638 93.1457976 474.667029 90.7307033 473.787813 87.4373928 476.920022 86.6140652 477.744287 87.3276158 479.612622 89.6878216 481.151251 92.102916 479.612622 92.8713551 478.898259 92.761578 478.293798 93.7495712 476.974973 94.7924528 475.436344 95.3962264"></polygon>
                    <polygon id="SC" points="412.132753 223.725557 410.978781 223.176672 409.934712 220.102916 408.560936 218.84048 407.18716 218.566038 406.362894 216.041166 404.714363 212.473413 402.40642 211.48542 401.36235 210.497427 400.702938 209.070326 399.384113 207.972556 398.120239 207.259005 396.911317 205.667238 395.152884 204.349914 392.735038 203.41681 392.515234 202.64837 391.25136 201.111492 390.976605 200.288165 388.888466 197.324185 387.020131 197.379074 384.87704 196.006861 384.217628 195.348199 384.107726 194.57976 384.437432 193.701544 385.92111 192.987993 385.481502 191.890223 388.998368 190.408233 394.053863 187.93825 397.955386 187.444254 406.967356 187.169811 408.23123 188.212693 409.220348 190.133791 411.748096 189.694683 418.671926 188.871355 420.155604 189.310463 427.024483 193.372213 432.574538 197.927959 429.662133 200.891938 428.233406 204.240137 427.958651 207.698113 427.079434 208.137221 426.474973 209.619211 425.156148 209.948542 424.002176 211.924528 422.518498 213.406518 421.254625 215.272727 420.375408 215.711835 418.397171 217.578045 416.803591 217.687822 417.353101 219.444254 414.60555 222.353345 413.341676 223.231561"></polygon>
                    <polygon id="SD" points="253.873776 96.109777 253.379217 97.8662093 253.599021 99.5128645 255.027748 100.610635 254.368335 103.574614 253.379217 105.825043 254.203482 107.636364 254.588139 108.240137 253.873776 108.295026 253.489119 107.41681 253.159412 106.319039 251.346028 105.331046 248.708379 104.507719 247.334603 103.794168 245.741023 103.849057 243.597933 104.068611 241.509793 104.727273 238.597388 102.641509 237.113711 101.324185 231.124048 101.763293 208.319369 100.445969 188.756801 99.238422 189.581066 85.626072 191.119695 66.9639794 191.339499 64.219554 222.606638 66.3602058 253.873776 67.2933105 253.873776 68.7753002 253.159412 69.5986278 252.060392 70.4219554 252.005441 71.6295026 252.609902 72.8370497 254.862894 74.703259 255.13765 76.1852487 255.13765 95.890223"></polygon>
                    <polygon id="TN" points="363.665941 194.085763 356.467356 194.744425 343.663765 195.951973 323.002176 197.433962 316.517954 197.653516 317.012514 197.324185 317.507073 194.854202 316.847661 192.878216 318.990751 191.61578 319.210555 190.243568 319.869967 187.883362 321.518498 182.668954 321.793254 179.595197 321.958107 179.48542 328.717084 179.375643 336.190424 178.936535 336.245375 176.795883 338.168662 176.740995 354.873776 174.929674 384.547334 172.075472 390.207291 171.252144 394.383569 171.142367 395.702394 170.099485 396.416757 170.264151 396.361806 172.075472 396.142002 172.953688 394.823177 174.161235 393.943961 176.137221 392.84494 175.917667 391.526115 176.411664 390.317193 178.222985 389.547878 178.113208 389.10827 177.454545 388.503808 177.674099 386.140914 179.86964 385.701306 181.571184 383.393362 182.778731 381.030468 184.754717 378.942329 185.578045 376.524483 187.114923 376.194777 189.090909 374.821001 189.365352 373.72198 190.298456 373.612078 192.933105"></polygon>
                    <path d="M150.45593,230.312178 L170.787813,232.288165 L186.888466,233.331046 L190.954842,179.704974 L220.848205,181.022298 L219.914037,193.811321 L219.364527,203.691252 L219.474429,204.789022 L221.892274,207.039451 L222.991295,207.643225 L223.980413,207.643225 L224.255169,206.984563 L224.639826,207.478559 L225.958651,207.588336 L226.563112,207.259005 L226.563112,207.149228 L227.112622,207.423671 L226.892818,209.454545 L229.365615,209.838765 L230.68444,210.332762 L232.992383,210.716981 L234.42111,211.704974 L235.959739,210.662093 L237.443417,210.991424 L238.652339,212.692967 L239.091948,212.747856 L239.091948,213.900515 L240.905332,214.504288 L242.279108,213.35163 L243.103373,213.626072 L244.257345,213.680961 L244.587051,214.833619 L247.444505,215.931389 L248.708379,215.656947 L249.752448,213.461407 L249.807399,213.461407 L250.411861,214.504288 L252.939608,214.998285 L254.807943,215.711835 L256.566376,216.26072 L257.885201,215.602058 L258.269859,214.339623 L260.248096,214.339623 L261.402067,214.888508 L263.050598,213.790738 L263.270403,213.790738 L263.545158,214.559177 L266.127856,214.559177 L267.171926,213.571184 L267.886289,213.790738 L268.820457,214.943396 L270.633841,215.986278 L272.502176,216.535163 L273.875952,217.303602 L275.35963,218.401372 L277.063112,217.74271 L278.217084,218.181818 L278.601741,229.15952 L278.986398,234.373928 L279.316104,236.624357 L280.744831,239.039451 L281.239391,241.509434 L283.547334,244.747856 L283.712187,246.4494 L284.041893,246.888508 L283.657236,251.114923 L282.063656,253.749571 L282.77802,255.176672 L282.503264,256.493997 L282.063656,260.445969 L281.349293,262.092624 L281.514146,264.397942 L278.436888,265.276158 L272.996736,267.746141 L272.447225,268.789022 L271.018498,269.831904 L269.864527,270.655232 L269.150163,271.09434 L266.017954,274.003431 L264.534276,275.156089 L261.621872,276.912521 L258.489663,278.229846 L255.027748,280.096055 L254.038629,280.919383 L250.851469,282.895369 L248.983134,283.2247 L246.840044,286.243568 L244.642002,286.408233 L244.092492,287.451115 L245.356366,288.493997 L244.5321,291.512864 L243.817737,293.982847 L243.213275,296.123499 L242.773667,298.593482 L243.213275,299.910806 L244.202394,303.753002 L244.751904,307.101201 L245.741023,308.58319 L245.191513,309.406518 L243.48803,310.4494 L240.355822,308.308748 L237.333515,307.704974 L236.619151,307.979417 L234.860718,307.650086 L232.552775,305.948542 L229.695321,305.344768 L225.519042,303.478559 L224.365071,301.337907 L223.650707,297.770154 L221.892274,296.727273 L221.562568,295.464837 L221.892274,295.135506 L222.057127,293.269297 L221.342764,292.939966 L221.013058,292.391081 L221.727421,289.975986 L220.848205,288.713551 L219.089771,288 L217.221436,285.584906 L215.243199,281.962264 L212.935256,280.535163 L213.045158,279.492281 L210.132753,272.740995 L209.693145,270.435678 L208.704026,269.392796 L208.594124,268.569468 L205.297062,265.660377 L203.868335,263.958834 L203.868335,263.35506 L202.439608,262.202401 L198.702938,261.598628 L194.636561,261.269297 L192.933079,260.006861 L190.460283,260.994854 L188.482046,261.818182 L187.218172,263.574614 L186.668662,265.605489 L184.250816,268.953688 L182.931991,270.271012 L181.503264,269.722127 L180.514146,269.118353 L179.470076,268.789022 L177.326986,267.526587 L177.326986,267.197256 L176.337867,266.154374 L173.480413,265.001715 L169.414037,260.720412 L168.150163,258.140652 L168.150163,253.694683 L166.39173,250.12693 L166.116975,248.64494 L165.237758,248.096055 L164.633297,246.943396 L161.885745,245.790738 L161.171382,244.912521 L157.269859,240.576329 L156.555495,238.819897 L153.972797,237.557461 L153.148531,235.142367 L151.719804,233.5506 L150.785637,233.276158 L150.45593,230.312178 Z M246.290533,308.089194 L245.960827,304.19211 L244.477149,300.240137 L244.147443,296.397942 L244.971708,291.897084 L246.785092,288.109777 L248.708379,285.145798 L250.466812,283.169811 L250.796518,283.279588 L248.158868,286.90223 L245.741023,290.469983 L244.642002,294.092624 L244.477149,296.946827 L244.971708,300.295026 L246.400435,304.246998 L246.67519,307.101201 L246.785092,307.924528 L246.290533,308.089194 Z" id="TX"></path>
                    <polygon id="UT" points="120.562568 164.610635 134.080522 166.586621 135.124592 159.066895 138.971164 131.348199 140.235038 119.272727 122.540805 117.35163 123.749728 110.161235 124.738847 104.343053 105.670838 100.994854 98.8019587 99.6226415 92.9771491 128.658662 90.0097933 145.125214 88.1964091 153.578045 87.2622416 158.627787"></polygon>
                    <path d="M453.730686,142.271012 L453.620783,143.80789 L452.027203,145.893654 L451.807399,148.418525 L452.082155,150.284734 L451.093036,153.02916 L449.884113,154.072041 L449.059848,151.54717 L449.279652,148.58319 L450.158868,146.277873 L450.543526,144.466552 L450.488575,143.533448 L453.730686,142.271012 Z M420.595212,166.751286 L399.384113,169.825043 L396.746464,169.770154 L395.537541,169.605489 L394.163765,170.64837 L390.152339,170.703259 L384.492383,171.581475 L380.810664,171.910806 L383.063656,170.483705 L385.316649,169.221269 L385.316649,168.068611 L388.448857,164.06175 L390.70185,162.030875 L391.910773,160.658662 L393.88901,163.018868 L395.977149,163.512864 L397.460827,162.963979 L398.559848,162.140652 L399.878672,162.799314 L402.40642,162.085763 L403.340588,159.670669 L404.659412,160.054889 L406.417845,158.792453 L407.297062,159.012007 L408.835691,157.255575 L408.945593,155.773585 L408.505985,155.114923 L411.143634,149.35163 L412.132753,146.497427 L412.407508,143.917667 L412.792165,143.80789 L413.396627,144.740995 L414.220892,145.399657 L416.363983,145.28988 L417.29815,140.843911 L418.946681,140.51458 L419.386289,139.087479 L420.924918,137.879931 L421.52938,136.727273 L422.518498,134.367067 L422.573449,131.842196 L424.551687,132.610635 L428.178455,134.312178 L428.343308,131.457976 L430.211643,132.116638 L429.881937,133.708405 L434.607726,135.409949 L435.37704,136.397942 L434.937432,138.209262 L434.223069,138.922813 L433.948313,139.855918 L434.223069,141.173242 L435.322089,141.886792 L437.46518,142.655232 L439.05876,143.204117 L441.75136,143.698113 L442.960283,144.850772 L444.718716,145.070326 L445.213275,145.728988 L444.993471,148.308748 L445.762786,148.912521 L445.48803,149.955403 L446.147443,150.394511 L446.037541,151.16295 L444.553863,151.108062 L444.608814,151.986278 L445.872688,152.809605 L445.927639,153.578045 L446.916757,154.566038 L447.191513,155.93825 L445.762786,156.70669 L446.642002,157.530017 L449.829162,156.596913 L451.86235,160 L420.595212,166.751286 Z" id="VA"></path>
                    <polygon id="VT" points="452.631665 57.7975986 453.95049 61.3653516 454.390098 64.2744425 453.840588 66.4150943 455.214363 68.8301887 455.708923 70.0926244 455.324266 71.5197256 457.13765 72.3430532 458.73123 78.271012 458.73123 81.1801029 465.050598 80.0274443 464.501088 79.4236707 464.830794 78.380789 464.940696 76.0205832 464.391186 75.2521441 464.501088 72.6723842 464.940696 67.567753 464.940696 62.9022298 464.336235 61.9142367 464.336235 61.0360206 465.874864 60.432247 467.79815 58.0171527 467.79815 56.0411664 466.754081 54.5591767 466.589227 51.3811321 452.247008 55.1080617"></polygon>
                    <path d="M35.9929271,33.8662093 L34.7290533,31.5060034 L32.4760609,31.1217839 L32.2562568,29.8044597 L30.882481,29.4751286 L29.288901,29.2006861 L28.2997824,29.7495712 L27.0359086,28.1578045 L27.2007617,26.5660377 L28.6844396,26.4013722 L29.5636561,24.2058319 L28.1349293,23.6020583 L28.2448313,21.5711835 L30.6626768,21.2418525 L29.1789989,19.7598628 L28.3547334,15.8627787 L28.6844396,14.271012 L28.6844396,9.9348199 L27.695321,8.17838765 L28.9591948,3.01886792 L30.1131665,3.29331046 L31.4319913,4.88507719 L32.9156692,6.31217839 L34.6741023,7.35506003 L37.1468988,8.5077187 L38.8503808,8.83704974 L40.4439608,9.66037736 L42.312296,10.2092624 L43.5761697,10.0994854 L43.5761697,8.78216123 L44.2905332,8.17838765 L45.4445049,7.46483705 L45.609358,8.06861063 L45.7742111,9.05660377 L44.5103373,9.33104631 L44.3454842,10.483705 L45.3346028,11.3070326 L45.9390642,12.6243568 L46.2687704,13.6672384 L47.0930359,13.5574614 L47.202938,12.8439108 L46.6534276,12.1303602 L46.3786725,10.373928 L46.8182807,9.38593482 L46.4885745,8.5626072 L46.4885745,7.135506 L47.4776931,5.15951973 L46.8732318,3.73241852 L45.554407,1.09777015 L45.7192601,0.658662093 L46.4885745,0.219554031 L48.90642,1.04288165 L54.2366703,2.52487136 L58.9624592,3.567753 L69.9526659,6.69639794 L82.5914037,9.82504288 L90.8340588,11.7406518 L88.1964091,21.3790738 L85.7236126,32.8123499 L83.8552775,41.7317324 L83.6354733,46.7704974 L76.54679,44.7286449 L68.1392818,42.8240137 L60.1713819,42.9996569 L59.5669206,42.1598628 L56.4347116,43.3070326 L54.2916213,43.0765009 L52.8628945,42.0939966 L51.9287269,42.4507719 L49.648259,42.3135506 L48.7031012,41.5890223 L45.8676279,40.5900515 L45.2192057,40.5022298 L42.581556,39.7392796 L41.5264962,40.64494 L38.4217628,40.5077187 L35.8885201,38.6689537 L35.9929271,33.8662093 Z M41.2682263,3.45797599 L42.367247,3.34819897 L42.6420022,4.11663808 L43.4662677,3.23842196 L44.7301415,3.23842196 L45.1697497,4.06174957 L44.3454842,4.9948542 L44.6751904,5.43396226 L44.2905332,6.53173242 L43.5212187,6.75128645 C43.5212187,6.75128645 43.0266594,6.80617496 43.0266594,6.64150943 C43.0266594,6.47684391 43.8509249,5.21440823 43.8509249,5.21440823 L42.9167573,4.88507719 L42.7519042,5.7084048 L42.367247,6.03773585 L41.5429815,4.77530017 L41.2682263,3.45797599 Z" id="WA"></path>
                    <polygon id="WI" points="292.559304 57.0291595 294.152884 57.3036021 295.746464 56.974271 299.81284 55.2178388 301.40642 54.1749571 302.560392 53.7358491 303.604461 54.5591767 303 55.1629503 301.95593 56.864494 301.626224 57.9073756 302.175734 58.2367067 303.164853 57.6878216 303.769314 57.5780446 305.252992 58.0171527 305.582699 58.6209262 306.18716 58.7307033 306.516866 58.1269297 308.714908 61.0360206 313.220892 61.6946827 317.726877 62.9022298 319.155604 63.5060034 325.914581 64.9331046 326.793798 66.1955403 328.772035 66.8542024 329.706202 72.4528302 330.585419 73.2212693 331.409684 73.7152659 330.805223 74.9777015 329.816104 75.8559177 328.662133 78.4356775 327.947769 79.7530017 328.057671 80.7409949 328.881937 80.9056604 329.486398 79.8627787 330.310664 79.4236707 330.750272 78.161235 331.794342 77.1732419 333.27802 74.9777015 335.585963 71.5197256 336.025571 71.245283 336.190424 71.7941681 336.080522 73.0566038 334.486942 76.7890223 333.003264 79.9176672 332.728509 81.6740995 332.398803 83.1012007 332.838411 83.8147513 332.728509 85.296741 331.68444 86.6140652 331.409684 87.6020583 331.739391 89.5780446 332.069097 91.4442539 331.244831 92.8713551 330.805223 94.4631218 330.255713 96.1646655 330.860174 97.4819897 331.18988 100.830189 332.069097 103.300172 331.959195 104.946827 323.22198 105.93482 313.60555 106.483705 306.626768 106.483705 306.242111 105.660377 304.648531 105.440823 303.219804 104.727273 301.95593 102.696398 301.791077 100.720412 302.890098 99.1286449 302.615343 98.3602058 301.461371 97.1526587 301.021763 95.3413379 300.692057 91.6089194 299.538085 90.2367067 295.691513 87.7667238 293.603373 84.8027444 291.735038 84.2538593 290.526115 82.7169811 288.767682 82.7169811 287.174102 80.9056604 286.899347 77.3379074 286.954298 75.2521441 287.778564 73.5506003 287.338955 71.7941681 285.96518 70.2572899 286.954298 67.2933105 289.811752 65.2075472 290.690968 64.1646655 290.581066 59.7186964 290.690968 58.1818182 292.009793 56.64494"></polygon>
                    <polygon id="WV" points="412.077802 136.288165 415.264962 132.994854 416.693689 132.555746 417.572905 131.732419 418.397171 130.524871 419.001632 130.689537 420.705114 130.57976 423.232862 128.603774 424.057127 128.329331 424.771491 128.878216 426.200218 129.536878 427.848749 131.183533 427.628945 133.543739 424.661589 132.116638 422.023939 131.128645 421.968988 134.367067 420.540261 137.495712 418.946681 138.813036 418.507073 140.075472 416.858542 140.349914 415.924374 144.795883 414.385745 144.90566 413.781284 144.356775 413.121872 143.259005 411.912949 143.533448 411.638194 146.332762 410.649075 149.132075 407.901523 155.169811 408.396083 155.93825 408.341132 157.036021 407.132209 158.408233 406.252992 158.188679 404.54951 159.451115 403.010881 159.012007 402.021763 161.701544 399.933624 162.250429 398.559848 161.536878 397.186072 162.57976 395.922198 162.963979 394.163765 162.524871 392.075626 160.054889 390.152339 158.847341 388.778564 157.475129 387.184984 155.444254 386.910229 154.181818 385.3716 153.248714 385.041893 152.535163 384.931991 149.461407 385.096844 149.516295 386.415669 149.406518 387.404788 148.857633 387.404788 147.650086 388.338955 146.826758 388.393906 143.972556 388.888466 141.996569 389.492927 141.61235 389.712731 141.777015 390.262242 142.380789 391.196409 142.655232 391.800871 141.941681 391.25136 140.240137 391.25136 139.361921 392.954842 136.83705 393.614255 136.123499 394.713275 136.397942 396.142002 135.409949 397.845484 133.543739 399.164309 131.29331 399.274211 128.219554 399.548966 125.584906 399.548966 122.895369 398.944505 121.248714 399.439064 120.535163 399.878672 120.150943 402.241567 130.744425 404.604461 130.305317 410.758977 129.591767"></polygon>
                    <polygon id="WY" points="189.031556 85.5711835 188.207291 99.5128645 185.789445 123.663808 184.305767 123.499142 138.531556 118.504288 123.200218 116.857633 124.299238 110.271012 128.09086 87.7667238 130.178999 74.483705 130.893362 68.3361921 157.379761 72.1783877 189.855822 75.7461407"></polygon>
                    <polygon id="DC1" points="435.651795 136.013722 435.047334 135.135506 434.497824 134.696398 435.102285 133.818182 436.311208 134.641509"></polygon>
                </g>
                <path d="M118.432203,266.642857 L118.432203,297.089286 L138.262712,322 M0,229 L80.9745763,229 L118.432203,266.642857 L165.254237,266.642857 L195,296.535714 L195,322" id="frames" stroke="#EAF0F7"></path>
            </g>
            <g id="points" transform="translate(8.000000, 83.000000)" fill-rule="nonzero">
                <g id="point-copy-8" transform="translate(332.000000, 136.000000)" fill="#EC37FC">
                    <circle id="Oval-Copy-6" fill-opacity="0.39" cx="15" cy="15" r="15"></circle>
                    <circle id="Oval" cx="15" cy="15" r="4"></circle>
                </g>
                <g id="point-copy-3" fill="#6A0948">
                    <circle id="Oval-Copy-6" fill-opacity="0.301354895" cx="20" cy="20" r="20"></circle>
                    <circle id="Oval" cx="20" cy="20" r="8"></circle>
                </g>
                <g id="point-copy-5" transform="translate(247.000000, 35.000000)" fill="#FCB41D">
                    <circle id="Oval-Copy-6" fill-opacity="0.39" cx="15" cy="15" r="15"></circle>
                    <circle id="Oval" cx="15" cy="15" r="4"></circle>
                </g>
            </g>
            <g id="point-copy-3-copy" transform="translate(66.000000, 189.000000)" fill="#6A0948" fill-rule="nonzero">
                <circle id="Oval-Copy-6" fill-opacity="0.301354895" cx="15" cy="15" r="15"></circle>
                <circle id="Oval" cx="15" cy="15" r="6"></circle>
            </g>
            <g id="point-copy-3-copy-2" transform="translate(167.000000, 147.000000)" fill="#6A0948" fill-rule="nonzero">
                <circle id="Oval-Copy-6" fill-opacity="0.301354895" cx="15" cy="15" r="15"></circle>
                <circle id="Oval" cx="15" cy="15" r="6"></circle>
            </g>
            <g id="point-copy-3-copy-3" transform="translate(182.000000, 38.000000)" fill="#6A0948" fill-rule="nonzero">
                <circle id="Oval-Copy-6" fill-opacity="0.301354895" cx="15" cy="15" r="15"></circle>
                <circle id="Oval" cx="15" cy="15" r="6"></circle>
            </g>
            <g id="point-copy-3-copy-4" transform="translate(227.000000, 245.000000)" fill="#6A0948" fill-rule="nonzero">
                <circle id="Oval-Copy-6" fill-opacity="0.301354895" cx="27" cy="27" r="27"></circle>
                <circle id="Oval" cx="27" cy="27" r="11"></circle>
            </g>
            <g id="point-copy-3-copy-5" transform="translate(393.000000, 163.000000)" fill="#6A0948" fill-rule="nonzero">
                <circle id="Oval-Copy-6" fill-opacity="0.301354895" cx="15.5" cy="15.5" r="15.5"></circle>
                <circle id="Oval" cx="15.5" cy="15.5" r="6.5"></circle>
            </g>
            <g id="point-copy-3-copy-6" transform="translate(458.000000, 63.000000)" fill="#6A0948" fill-rule="nonzero">
                <circle id="Oval-Copy-6" fill-opacity="0.301354895" cx="24" cy="24" r="24"></circle>
                <circle id="Oval" cx="24" cy="24" r="10"></circle>
            </g>
        </g>
    </g>
</svg>