<?xml version="1.0" encoding="UTF-8"?>
<svg width="365px" height="230px" viewBox="0 0 365 230" version="1.1" xmlns="http://www.w3.org/2000/svg" xmlns:xlink="http://www.w3.org/1999/xlink">
    <!-- Generator: Sketch 55.1 (78136) - https://sketchapp.com -->
    <title>Visitors</title>
    <desc>Created with Sketch.</desc>
    <defs>
        <linearGradient x1="50.2108281%" y1="100%" x2="49.7891719%" y2="0%" id="linearGradient-1">
            <stop stop-color="#3794FC" offset="0%"></stop>
            <stop stop-color="#2881E5" offset="100%"></stop>
        </linearGradient>
        <linearGradient x1="50.2514964%" y1="100%" x2="49.7485036%" y2="0%" id="linearGradient-2">
            <stop stop-color="#3794FC" offset="0%"></stop>
            <stop stop-color="#2881E5" offset="100%"></stop>
        </linearGradient>
        <linearGradient x1="50.3304911%" y1="100%" x2="49.6695089%" y2="0%" id="linearGradient-3">
            <stop stop-color="#3794FC" offset="0%"></stop>
            <stop stop-color="#2881E5" offset="100%"></stop>
        </linearGradient>
        <linearGradient x1="50.2703287%" y1="100%" x2="49.7296713%" y2="0%" id="linearGradient-4">
            <stop stop-color="#3794FC" offset="0%"></stop>
            <stop stop-color="#2881E5" offset="100%"></stop>
        </linearGradient>
        <linearGradient x1="50.490148%" y1="100%" x2="49.509852%" y2="0%" id="linearGradient-5">
            <stop stop-color="#3794FC" offset="0%"></stop>
            <stop stop-color="#2881E5" offset="100%"></stop>
        </linearGradient>
        <linearGradient x1="50.3847338%" y1="100%" x2="49.6152662%" y2="0%" id="linearGradient-6">
            <stop stop-color="#3794FC" offset="0%"></stop>
            <stop stop-color="#2881E5" offset="100%"></stop>
        </linearGradient>
        <linearGradient x1="50.3051758%" y1="100%" x2="49.6948242%" y2="0%" id="linearGradient-7">
            <stop stop-color="#3794FC" offset="0%"></stop>
            <stop stop-color="#2881E5" offset="100%"></stop>
        </linearGradient>
        <linearGradient x1="50.4367194%" y1="100%" x2="49.5632806%" y2="0%" id="linearGradient-8">
            <stop stop-color="#3794FC" offset="0%"></stop>
            <stop stop-color="#2881E5" offset="100%"></stop>
        </linearGradient>
        <linearGradient x1="50.2282688%" y1="100%" x2="49.7717312%" y2="0%" id="linearGradient-9">
            <stop stop-color="#3794FC" offset="0%"></stop>
            <stop stop-color="#2881E5" offset="100%"></stop>
        </linearGradient>
        <linearGradient x1="50.1632653%" y1="100%" x2="49.8367347%" y2="0%" id="linearGradient-10">
            <stop stop-color="#3794FC" offset="0%"></stop>
            <stop stop-color="#2881E5" offset="100%"></stop>
        </linearGradient>
        <linearGradient x1="50.1690103%" y1="100%" x2="49.8309897%" y2="0%" id="linearGradient-11">
            <stop stop-color="#3794FC" offset="0%"></stop>
            <stop stop-color="#2881E5" offset="100%"></stop>
        </linearGradient>
        <linearGradient x1="50.1859012%" y1="100%" x2="49.8140988%" y2="0%" id="linearGradient-12">
            <stop stop-color="#3794FC" offset="0%"></stop>
            <stop stop-color="#2881E5" offset="100%"></stop>
        </linearGradient>
        <linearGradient x1="50.1356337%" y1="100%" x2="49.8643663%" y2="0%" id="linearGradient-13">
            <stop stop-color="#3794FC" offset="0%"></stop>
            <stop stop-color="#2881E5" offset="100%"></stop>
        </linearGradient>
    </defs>
    <g id="Page-1" stroke="none" stroke-width="1" fill="none" fill-rule="evenodd">
        <g id="Visitors" transform="translate(-1.000000, 1.000000)">
            <g id="graph">
                <g id="Grid" stroke-linecap="square">
                    <g id="vertical" opacity="0.5" transform="translate(60.763209, 1.000000)" stroke="#8097B1" stroke-dasharray="2,2,2" stroke-width="0.5">
                        <path d="M1.01272016,0.333074437 L1.01272016,228.333074" id="Line-1" opacity="0.606809701"></path>
                        <path d="M61.7759295,0.333074437 L61.7759295,228.333074" id="Line-2" opacity="0.606809701"></path>
                        <path d="M122.539139,0.333074437 L122.539139,228.333074" id="Line-3" opacity="0.606809701"></path>
                        <path d="M183.302348,0.333074437 L183.302348,228.333074" id="Line-3" opacity="0.606809701"></path>
                        <path d="M244.065558,0.333074437 L244.065558,228.333074" id="Line-3" opacity="0.606809701"></path>
                        <path d="M304.828767,0.333074437 L304.828767,228.333074" id="Line-3" opacity="0.606809701"></path>
                    </g>
                    <g id="horizontal" opacity="0.5" transform="translate(2.025440, 0.000000)" stroke="#8097B1" stroke-dasharray="2,2,2,2" stroke-width="0.5">
                        <path d="M1.23549854,182.25 L363.235499,182.25" id="Line-3" opacity="0.756413246"></path>
                        <path d="M0.235498539,137.25 L362.235499,137.25" id="Line-4" opacity="0.756413246"></path>
                        <path d="M1.23549854,91.25 L363.235499,91.25" id="Line-5" opacity="0.756413246"></path>
                        <path d="M0.235498539,45.25 L362.235499,45.25" id="Line-6" opacity="0.756413246"></path>
                        <path d="M1.23549854,0.25 L363.235499,0.25" id="Line-5" opacity="0.756413246"></path>
                    </g>
                    <path d="M1.51908023,0.333074437 L1.51908023,228.333074" id="Line" stroke="#E0E7FF"></path>
                    <path d="M2.26093885,228.5 L365.440235,228.5" id="Line" stroke="#E0E7FF"></path>
                </g>
                <g id="lines" transform="translate(20.000000, 37.000000)">
                    <path d="M2,38 L8,38 C9.1045695,38 10,38.8954305 10,40 L10,192 L0,192 L0,40 C-1.3527075e-16,38.8954305 0.8954305,38 2,38 Z" id="Rectangle-Copy-11" fill="url(#linearGradient-1)"></path>
                    <path d="M26,51 L32,51 C33.1045695,51 34,51.8954305 34,53 L34,192 L24,192 L24,53 C24,51.8954305 24.8954305,51 26,51 Z" id="Rectangle-Copy-12" fill="url(#linearGradient-2)"></path>
                    <path d="M50,69 L56,69 C57.1045695,69 58,69.8954305 58,71 L58,192 L48,192 L48,71 C48,69.8954305 48.8954305,69 50,69 Z" id="Rectangle-Copy-13" fill="url(#linearGradient-3)"></path>
                    <path d="M74,56 L80,56 C81.1045695,56 82,56.8954305 82,58 L82,192 L72,192 L72,58 C72,56.8954305 72.8954305,56 74,56 Z" id="Rectangle-Copy-14" fill="url(#linearGradient-4)"></path>
                    <path d="M98,91 L104,91 C105.104569,91 106,91.8954305 106,93 L106,192 L96,192 L96,93 C96,91.8954305 96.8954305,91 98,91 Z" id="Rectangle-Copy-15" fill="url(#linearGradient-5)"></path>
                    <path d="M122,78 L128,78 C129.104569,78 130,78.8954305 130,80 L130,192 L120,192 L120,80 C120,78.8954305 120.895431,78 122,78 Z" id="Rectangle-Copy-16" fill="url(#linearGradient-6)"></path>
                    <path d="M146,64 L152,64 C153.104569,64 154,64.8954305 154,66 L154,192 L144,192 L144,66 C144,64.8954305 144.895431,64 146,64 Z" id="Rectangle-Copy-17" fill="url(#linearGradient-7)"></path>
                    <path d="M170,85 L176,85 C177.104569,85 178,85.8954305 178,87 L178,192 L168,192 L168,87 C168,85.8954305 168.895431,85 170,85 Z" id="Rectangle-Copy-18" fill="url(#linearGradient-8)"></path>
                    <path d="M194,44 L200,44 C201.104569,44 202,44.8954305 202,46 L202,192 L192,192 L192,46 C192,44.8954305 192.895431,44 194,44 Z" id="Rectangle-Copy-19" fill="url(#linearGradient-9)"></path>
                    <path d="M218,17 L224,17 C225.104569,17 226,17.8954305 226,19 L226,192 L216,192 L216,19 C216,17.8954305 216.895431,17 218,17 Z" id="Rectangle-Copy-20" fill="url(#linearGradient-10)"></path>
                    <path d="M242,20 L248,20 C249.104569,20 250,20.8954305 250,22 L250,192 L240,192 L240,22 C240,20.8954305 240.895431,20 242,20 Z" id="Rectangle-Copy-21" fill="url(#linearGradient-11)"></path>
                    <path d="M266,64 L272,64 C273.104569,64 274,64.8954305 274,66 L274,192 L264,192 L264,66 C264,64.8954305 264.895431,64 266,64 Z" id="Rectangle-Copy-22" fill="url(#linearGradient-7)"></path>
                    <path d="M290,28 L296,28 C297.104569,28 298,28.8954305 298,30 L298,192 L288,192 L288,30 C288,28.8954305 288.895431,28 290,28 Z" id="Rectangle-Copy-23" fill="url(#linearGradient-12)"></path>
                    <path d="M314,0 L320,0 C321.104569,-2.02906125e-16 322,0.8954305 322,2 L322,192 L312,192 L312,2 C312,0.8954305 312.895431,2.02906125e-16 314,0 Z" id="Rectangle-Copy-24" fill="url(#linearGradient-13)"></path>
                </g>
            </g>
        </g>
    </g>
</svg>